M48
; DRILL file {KiCad (6.0.10)} date Sun May  7 22:19:02 2023
; FORMAT={-:-/ absolute / inch / decimal}
; #@! TF.CreationDate,2023-05-07T22:19:02+03:00
; #@! TF.GenerationSoftware,Kicad,Pcbnew,(6.0.10)
; #@! TF.FileFunction,Plated,1,4,PTH
FMAT,2
INCH
; #@! TA.AperFunction,Plated,PTH,ViaDrill
T1C0.0157
%
G90
G05
T1
X4.6713Y-3.9941
X4.6713Y-4.2126
X4.748Y-3.9941
X4.748Y-4.2126
X4.8248Y-3.9941
X4.8248Y-4.2126
X4.9134Y-4.2343
X4.9646Y-4.2343
X5.1594Y-4.2343
X5.2087Y-4.2362
X5.4035Y-4.2362
X5.4508Y-4.2382
X5.6476Y-4.2382
X5.6929Y-4.2382
X5.8917Y-4.2382
X5.937Y-4.2382
X6.1772Y-4.2106
X6.1791Y-3.9882
X6.2618Y-3.9882
X6.2618Y-4.2106
X6.3366Y-4.2106
X6.3425Y-3.9882
T0
M30
