%TF.GenerationSoftware,KiCad,Pcbnew,(6.0.10)*%
%TF.CreationDate,2023-05-07T22:18:59+03:00*%
%TF.ProjectId,Filter,46696c74-6572-42e6-9b69-6361645f7063,rev?*%
%TF.SameCoordinates,Original*%
%TF.FileFunction,Legend,Top*%
%TF.FilePolarity,Positive*%
%FSLAX46Y46*%
G04 Gerber Fmt 4.6, Leading zero omitted, Abs format (unit mm)*
G04 Created by KiCad (PCBNEW (6.0.10)) date 2023-05-07 22:18:59*
%MOMM*%
%LPD*%
G01*
G04 APERTURE LIST*
%ADD10C,0.150000*%
%ADD11C,0.120000*%
G04 APERTURE END LIST*
D10*
X128595238Y-100952380D02*
X128119047Y-100952380D01*
X128119047Y-99952380D01*
X129119047Y-99952380D02*
X129309523Y-99952380D01*
X129404761Y-100000000D01*
X129500000Y-100095238D01*
X129547619Y-100285714D01*
X129547619Y-100619047D01*
X129500000Y-100809523D01*
X129404761Y-100904761D01*
X129309523Y-100952380D01*
X129119047Y-100952380D01*
X129023809Y-100904761D01*
X128928571Y-100809523D01*
X128880952Y-100619047D01*
X128880952Y-100285714D01*
X128928571Y-100095238D01*
X129023809Y-100000000D01*
X129119047Y-99952380D01*
X129880952Y-99952380D02*
X130119047Y-100952380D01*
X130309523Y-100238095D01*
X130500000Y-100952380D01*
X130738095Y-99952380D01*
X131119047Y-100952380D02*
X131119047Y-99952380D01*
X131500000Y-99952380D01*
X131595238Y-100000000D01*
X131642857Y-100047619D01*
X131690476Y-100142857D01*
X131690476Y-100285714D01*
X131642857Y-100380952D01*
X131595238Y-100428571D01*
X131500000Y-100476190D01*
X131119047Y-100476190D01*
X132071428Y-100666666D02*
X132547619Y-100666666D01*
X131976190Y-100952380D02*
X132309523Y-99952380D01*
X132642857Y-100952380D01*
X132928571Y-100904761D02*
X133071428Y-100952380D01*
X133309523Y-100952380D01*
X133404761Y-100904761D01*
X133452380Y-100857142D01*
X133500000Y-100761904D01*
X133500000Y-100666666D01*
X133452380Y-100571428D01*
X133404761Y-100523809D01*
X133309523Y-100476190D01*
X133119047Y-100428571D01*
X133023809Y-100380952D01*
X132976190Y-100333333D01*
X132928571Y-100238095D01*
X132928571Y-100142857D01*
X132976190Y-100047619D01*
X133023809Y-100000000D01*
X133119047Y-99952380D01*
X133357142Y-99952380D01*
X133500000Y-100000000D01*
X133880952Y-100904761D02*
X134023809Y-100952380D01*
X134261904Y-100952380D01*
X134357142Y-100904761D01*
X134404761Y-100857142D01*
X134452380Y-100761904D01*
X134452380Y-100666666D01*
X134404761Y-100571428D01*
X134357142Y-100523809D01*
X134261904Y-100476190D01*
X134071428Y-100428571D01*
X133976190Y-100380952D01*
X133928571Y-100333333D01*
X133880952Y-100238095D01*
X133880952Y-100142857D01*
X133928571Y-100047619D01*
X133976190Y-100000000D01*
X134071428Y-99952380D01*
X134309523Y-99952380D01*
X134452380Y-100000000D01*
X136357142Y-99904761D02*
X135500000Y-101190476D01*
X137452380Y-100952380D02*
X137452380Y-99952380D01*
X137452380Y-100428571D02*
X138023809Y-100428571D01*
X138023809Y-100952380D02*
X138023809Y-99952380D01*
X138500000Y-100952380D02*
X138500000Y-99952380D01*
X139500000Y-100000000D02*
X139404761Y-99952380D01*
X139261904Y-99952380D01*
X139119047Y-100000000D01*
X139023809Y-100095238D01*
X138976190Y-100190476D01*
X138928571Y-100380952D01*
X138928571Y-100523809D01*
X138976190Y-100714285D01*
X139023809Y-100809523D01*
X139119047Y-100904761D01*
X139261904Y-100952380D01*
X139357142Y-100952380D01*
X139500000Y-100904761D01*
X139547619Y-100857142D01*
X139547619Y-100523809D01*
X139357142Y-100523809D01*
X139976190Y-100952380D02*
X139976190Y-99952380D01*
X139976190Y-100428571D02*
X140547619Y-100428571D01*
X140547619Y-100952380D02*
X140547619Y-99952380D01*
X141023809Y-100952380D02*
X141023809Y-99952380D01*
X141404761Y-99952380D01*
X141500000Y-100000000D01*
X141547619Y-100047619D01*
X141595238Y-100142857D01*
X141595238Y-100285714D01*
X141547619Y-100380952D01*
X141500000Y-100428571D01*
X141404761Y-100476190D01*
X141023809Y-100476190D01*
X141976190Y-100666666D02*
X142452380Y-100666666D01*
X141880952Y-100952380D02*
X142214285Y-99952380D01*
X142547619Y-100952380D01*
X142833333Y-100904761D02*
X142976190Y-100952380D01*
X143214285Y-100952380D01*
X143309523Y-100904761D01*
X143357142Y-100857142D01*
X143404761Y-100761904D01*
X143404761Y-100666666D01*
X143357142Y-100571428D01*
X143309523Y-100523809D01*
X143214285Y-100476190D01*
X143023809Y-100428571D01*
X142928571Y-100380952D01*
X142880952Y-100333333D01*
X142833333Y-100238095D01*
X142833333Y-100142857D01*
X142880952Y-100047619D01*
X142928571Y-100000000D01*
X143023809Y-99952380D01*
X143261904Y-99952380D01*
X143404761Y-100000000D01*
X143785714Y-100904761D02*
X143928571Y-100952380D01*
X144166666Y-100952380D01*
X144261904Y-100904761D01*
X144309523Y-100857142D01*
X144357142Y-100761904D01*
X144357142Y-100666666D01*
X144309523Y-100571428D01*
X144261904Y-100523809D01*
X144166666Y-100476190D01*
X143976190Y-100428571D01*
X143880952Y-100380952D01*
X143833333Y-100333333D01*
X143785714Y-100238095D01*
X143785714Y-100142857D01*
X143833333Y-100047619D01*
X143880952Y-100000000D01*
X143976190Y-99952380D01*
X144214285Y-99952380D01*
X144357142Y-100000000D01*
X145880952Y-100428571D02*
X145547619Y-100428571D01*
X145547619Y-100952380D02*
X145547619Y-99952380D01*
X146023809Y-99952380D01*
X146404761Y-100952380D02*
X146404761Y-99952380D01*
X147357142Y-100952380D02*
X146880952Y-100952380D01*
X146880952Y-99952380D01*
X147547619Y-99952380D02*
X148119047Y-99952380D01*
X147833333Y-100952380D02*
X147833333Y-99952380D01*
X148452380Y-100428571D02*
X148785714Y-100428571D01*
X148928571Y-100952380D02*
X148452380Y-100952380D01*
X148452380Y-99952380D01*
X148928571Y-99952380D01*
X149928571Y-100952380D02*
X149595238Y-100476190D01*
X149357142Y-100952380D02*
X149357142Y-99952380D01*
X149738095Y-99952380D01*
X149833333Y-100000000D01*
X149880952Y-100047619D01*
X149928571Y-100142857D01*
X149928571Y-100285714D01*
X149880952Y-100380952D01*
X149833333Y-100428571D01*
X149738095Y-100476190D01*
X149357142Y-100476190D01*
X153450000Y-99252380D02*
X153640476Y-99252380D01*
X153735714Y-99300000D01*
X153830952Y-99395238D01*
X153878571Y-99585714D01*
X153878571Y-99919047D01*
X153830952Y-100109523D01*
X153735714Y-100204761D01*
X153640476Y-100252380D01*
X153450000Y-100252380D01*
X153354761Y-100204761D01*
X153259523Y-100109523D01*
X153211904Y-99919047D01*
X153211904Y-99585714D01*
X153259523Y-99395238D01*
X153354761Y-99300000D01*
X153450000Y-99252380D01*
X154307142Y-99252380D02*
X154307142Y-100061904D01*
X154354761Y-100157142D01*
X154402380Y-100204761D01*
X154497619Y-100252380D01*
X154688095Y-100252380D01*
X154783333Y-100204761D01*
X154830952Y-100157142D01*
X154878571Y-100061904D01*
X154878571Y-99252380D01*
X155211904Y-99252380D02*
X155783333Y-99252380D01*
X155497619Y-100252380D02*
X155497619Y-99252380D01*
X123976190Y-100402380D02*
X123976190Y-99402380D01*
X124452380Y-100402380D02*
X124452380Y-99402380D01*
X125023809Y-100402380D01*
X125023809Y-99402380D01*
%TO.C,J1*%
X124216666Y-108102380D02*
X124216666Y-108816666D01*
X124169047Y-108959523D01*
X124073809Y-109054761D01*
X123930952Y-109102380D01*
X123835714Y-109102380D01*
X125216666Y-109102380D02*
X124645238Y-109102380D01*
X124930952Y-109102380D02*
X124930952Y-108102380D01*
X124835714Y-108245238D01*
X124740476Y-108340476D01*
X124645238Y-108388095D01*
%TO.C,J2*%
X154516666Y-107952380D02*
X154516666Y-108666666D01*
X154469047Y-108809523D01*
X154373809Y-108904761D01*
X154230952Y-108952380D01*
X154135714Y-108952380D01*
X154945238Y-108047619D02*
X154992857Y-108000000D01*
X155088095Y-107952380D01*
X155326190Y-107952380D01*
X155421428Y-108000000D01*
X155469047Y-108047619D01*
X155516666Y-108142857D01*
X155516666Y-108238095D01*
X155469047Y-108380952D01*
X154897619Y-108952380D01*
X155516666Y-108952380D01*
%TO.C,C4*%
X143883333Y-102607142D02*
X143835714Y-102654761D01*
X143692857Y-102702380D01*
X143597619Y-102702380D01*
X143454761Y-102654761D01*
X143359523Y-102559523D01*
X143311904Y-102464285D01*
X143264285Y-102273809D01*
X143264285Y-102130952D01*
X143311904Y-101940476D01*
X143359523Y-101845238D01*
X143454761Y-101750000D01*
X143597619Y-101702380D01*
X143692857Y-101702380D01*
X143835714Y-101750000D01*
X143883333Y-101797619D01*
X144740476Y-102035714D02*
X144740476Y-102702380D01*
X144502380Y-101654761D02*
X144264285Y-102369047D01*
X144883333Y-102369047D01*
%TO.C,L1*%
X128433333Y-102702380D02*
X127957142Y-102702380D01*
X127957142Y-101702380D01*
X129290476Y-102702380D02*
X128719047Y-102702380D01*
X129004761Y-102702380D02*
X129004761Y-101702380D01*
X128909523Y-101845238D01*
X128814285Y-101940476D01*
X128719047Y-101988095D01*
%TO.C,L3*%
X140783333Y-102702380D02*
X140307142Y-102702380D01*
X140307142Y-101702380D01*
X141021428Y-101702380D02*
X141640476Y-101702380D01*
X141307142Y-102083333D01*
X141450000Y-102083333D01*
X141545238Y-102130952D01*
X141592857Y-102178571D01*
X141640476Y-102273809D01*
X141640476Y-102511904D01*
X141592857Y-102607142D01*
X141545238Y-102654761D01*
X141450000Y-102702380D01*
X141164285Y-102702380D01*
X141069047Y-102654761D01*
X141021428Y-102607142D01*
%TO.C,C1*%
X125333333Y-102607142D02*
X125285714Y-102654761D01*
X125142857Y-102702380D01*
X125047619Y-102702380D01*
X124904761Y-102654761D01*
X124809523Y-102559523D01*
X124761904Y-102464285D01*
X124714285Y-102273809D01*
X124714285Y-102130952D01*
X124761904Y-101940476D01*
X124809523Y-101845238D01*
X124904761Y-101750000D01*
X125047619Y-101702380D01*
X125142857Y-101702380D01*
X125285714Y-101750000D01*
X125333333Y-101797619D01*
X126285714Y-102702380D02*
X125714285Y-102702380D01*
X126000000Y-102702380D02*
X126000000Y-101702380D01*
X125904761Y-101845238D01*
X125809523Y-101940476D01*
X125714285Y-101988095D01*
%TO.C,C5*%
X149883333Y-102607142D02*
X149835714Y-102654761D01*
X149692857Y-102702380D01*
X149597619Y-102702380D01*
X149454761Y-102654761D01*
X149359523Y-102559523D01*
X149311904Y-102464285D01*
X149264285Y-102273809D01*
X149264285Y-102130952D01*
X149311904Y-101940476D01*
X149359523Y-101845238D01*
X149454761Y-101750000D01*
X149597619Y-101702380D01*
X149692857Y-101702380D01*
X149835714Y-101750000D01*
X149883333Y-101797619D01*
X150788095Y-101702380D02*
X150311904Y-101702380D01*
X150264285Y-102178571D01*
X150311904Y-102130952D01*
X150407142Y-102083333D01*
X150645238Y-102083333D01*
X150740476Y-102130952D01*
X150788095Y-102178571D01*
X150835714Y-102273809D01*
X150835714Y-102511904D01*
X150788095Y-102607142D01*
X150740476Y-102654761D01*
X150645238Y-102702380D01*
X150407142Y-102702380D01*
X150311904Y-102654761D01*
X150264285Y-102607142D01*
%TO.C,L4*%
X147033333Y-102702380D02*
X146557142Y-102702380D01*
X146557142Y-101702380D01*
X147795238Y-102035714D02*
X147795238Y-102702380D01*
X147557142Y-101654761D02*
X147319047Y-102369047D01*
X147938095Y-102369047D01*
%TO.C,L2*%
X134583333Y-102702380D02*
X134107142Y-102702380D01*
X134107142Y-101702380D01*
X134869047Y-101797619D02*
X134916666Y-101750000D01*
X135011904Y-101702380D01*
X135250000Y-101702380D01*
X135345238Y-101750000D01*
X135392857Y-101797619D01*
X135440476Y-101892857D01*
X135440476Y-101988095D01*
X135392857Y-102130952D01*
X134821428Y-102702380D01*
X135440476Y-102702380D01*
%TO.C,L5*%
X153083333Y-102702380D02*
X152607142Y-102702380D01*
X152607142Y-101702380D01*
X153892857Y-101702380D02*
X153416666Y-101702380D01*
X153369047Y-102178571D01*
X153416666Y-102130952D01*
X153511904Y-102083333D01*
X153750000Y-102083333D01*
X153845238Y-102130952D01*
X153892857Y-102178571D01*
X153940476Y-102273809D01*
X153940476Y-102511904D01*
X153892857Y-102607142D01*
X153845238Y-102654761D01*
X153750000Y-102702380D01*
X153511904Y-102702380D01*
X153416666Y-102654761D01*
X153369047Y-102607142D01*
%TO.C,C2*%
X131483333Y-102607142D02*
X131435714Y-102654761D01*
X131292857Y-102702380D01*
X131197619Y-102702380D01*
X131054761Y-102654761D01*
X130959523Y-102559523D01*
X130911904Y-102464285D01*
X130864285Y-102273809D01*
X130864285Y-102130952D01*
X130911904Y-101940476D01*
X130959523Y-101845238D01*
X131054761Y-101750000D01*
X131197619Y-101702380D01*
X131292857Y-101702380D01*
X131435714Y-101750000D01*
X131483333Y-101797619D01*
X131864285Y-101797619D02*
X131911904Y-101750000D01*
X132007142Y-101702380D01*
X132245238Y-101702380D01*
X132340476Y-101750000D01*
X132388095Y-101797619D01*
X132435714Y-101892857D01*
X132435714Y-101988095D01*
X132388095Y-102130952D01*
X131816666Y-102702380D01*
X132435714Y-102702380D01*
%TO.C,C3*%
X137633333Y-102607142D02*
X137585714Y-102654761D01*
X137442857Y-102702380D01*
X137347619Y-102702380D01*
X137204761Y-102654761D01*
X137109523Y-102559523D01*
X137061904Y-102464285D01*
X137014285Y-102273809D01*
X137014285Y-102130952D01*
X137061904Y-101940476D01*
X137109523Y-101845238D01*
X137204761Y-101750000D01*
X137347619Y-101702380D01*
X137442857Y-101702380D01*
X137585714Y-101750000D01*
X137633333Y-101797619D01*
X137966666Y-101702380D02*
X138585714Y-101702380D01*
X138252380Y-102083333D01*
X138395238Y-102083333D01*
X138490476Y-102130952D01*
X138538095Y-102178571D01*
X138585714Y-102273809D01*
X138585714Y-102511904D01*
X138538095Y-102607142D01*
X138490476Y-102654761D01*
X138395238Y-102702380D01*
X138109523Y-102702380D01*
X138014285Y-102654761D01*
X137966666Y-102607142D01*
D11*
%TO.C,J1*%
X123810000Y-104200000D02*
X124310000Y-104450000D01*
X124310000Y-104450000D02*
X124310000Y-103950000D01*
X124310000Y-103950000D02*
X123810000Y-104200000D01*
%TO.C,J2*%
X155340000Y-104400000D02*
X155840000Y-104150000D01*
X155840000Y-104150000D02*
X155340000Y-103900000D01*
X155340000Y-103900000D02*
X155340000Y-104400000D01*
%TO.C,C4*%
X143315000Y-104926248D02*
X143315000Y-105448752D01*
X144785000Y-104926248D02*
X144785000Y-105448752D01*
%TO.C,L1*%
X128139758Y-103590000D02*
X128960242Y-103590000D01*
X128139758Y-104710000D02*
X128960242Y-104710000D01*
%TO.C,L3*%
X140539758Y-103590000D02*
X141360242Y-103590000D01*
X140539758Y-104710000D02*
X141360242Y-104710000D01*
%TO.C,C1*%
X126185000Y-104926248D02*
X126185000Y-105448752D01*
X124715000Y-104926248D02*
X124715000Y-105448752D01*
%TO.C,C5*%
X150985000Y-104926248D02*
X150985000Y-105448752D01*
X149515000Y-104926248D02*
X149515000Y-105448752D01*
%TO.C,L4*%
X146789758Y-104710000D02*
X147610242Y-104710000D01*
X146789758Y-103590000D02*
X147610242Y-103590000D01*
%TO.C,L2*%
X134339758Y-103590000D02*
X135160242Y-103590000D01*
X134339758Y-104710000D02*
X135160242Y-104710000D01*
%TO.C,L5*%
X152889758Y-103590000D02*
X153710242Y-103590000D01*
X152889758Y-104710000D02*
X153710242Y-104710000D01*
%TO.C,C2*%
X130915000Y-104926248D02*
X130915000Y-105448752D01*
X132385000Y-104926248D02*
X132385000Y-105448752D01*
%TO.C,C3*%
X137115000Y-104926248D02*
X137115000Y-105448752D01*
X138585000Y-104926248D02*
X138585000Y-105448752D01*
%TD*%
M02*
