%TF.GenerationSoftware,KiCad,Pcbnew,(6.0.10)*%
%TF.CreationDate,2023-05-07T22:18:59+03:00*%
%TF.ProjectId,Filter,46696c74-6572-42e6-9b69-6361645f7063,rev?*%
%TF.SameCoordinates,Original*%
%TF.FileFunction,Copper,L1,Top*%
%TF.FilePolarity,Positive*%
%FSLAX46Y46*%
G04 Gerber Fmt 4.6, Leading zero omitted, Abs format (unit mm)*
G04 Created by KiCad (PCBNEW (6.0.10)) date 2023-05-07 22:18:59*
%MOMM*%
%LPD*%
G01*
G04 APERTURE LIST*
G04 Aperture macros list*
%AMRoundRect*
0 Rectangle with rounded corners*
0 $1 Rounding radius*
0 $2 $3 $4 $5 $6 $7 $8 $9 X,Y pos of 4 corners*
0 Add a 4 corners polygon primitive as box body*
4,1,4,$2,$3,$4,$5,$6,$7,$8,$9,$2,$3,0*
0 Add four circle primitives for the rounded corners*
1,1,$1+$1,$2,$3*
1,1,$1+$1,$4,$5*
1,1,$1+$1,$6,$7*
1,1,$1+$1,$8,$9*
0 Add four rect primitives between the rounded corners*
20,1,$1+$1,$2,$3,$4,$5,0*
20,1,$1+$1,$4,$5,$6,$7,0*
20,1,$1+$1,$6,$7,$8,$9,0*
20,1,$1+$1,$8,$9,$2,$3,0*%
G04 Aperture macros list end*
%TA.AperFunction,SMDPad,CuDef*%
%ADD10R,5.080000X1.500000*%
%TD*%
%TA.AperFunction,SMDPad,CuDef*%
%ADD11RoundRect,0.250000X-0.475000X0.337500X-0.475000X-0.337500X0.475000X-0.337500X0.475000X0.337500X0*%
%TD*%
%TA.AperFunction,SMDPad,CuDef*%
%ADD12RoundRect,0.250000X-0.275000X-0.350000X0.275000X-0.350000X0.275000X0.350000X-0.275000X0.350000X0*%
%TD*%
%TA.AperFunction,ViaPad*%
%ADD13C,0.800000*%
%TD*%
%TA.AperFunction,Conductor*%
%ADD14C,0.293370*%
%TD*%
G04 APERTURE END LIST*
D10*
%TO.P,J1,1,In*%
%TO.N,Net-(C1-Pad1)*%
X120600000Y-104200000D03*
%TO.P,J1,2,Ext*%
%TO.N,GND*%
X120600000Y-108450000D03*
X120600000Y-99950000D03*
%TD*%
%TO.P,J2,1,In*%
%TO.N,Net-(L5-Pad2)*%
X159050000Y-104150000D03*
%TO.P,J2,2,Ext*%
%TO.N,GND*%
X159050000Y-108400000D03*
X159050000Y-99900000D03*
%TD*%
D11*
%TO.P,C4,1*%
%TO.N,Net-(C4-Pad1)*%
X144050000Y-104150000D03*
%TO.P,C4,2*%
%TO.N,GND*%
X144050000Y-106225000D03*
%TD*%
D12*
%TO.P,L1,1,1*%
%TO.N,Net-(C1-Pad1)*%
X127400000Y-104150000D03*
%TO.P,L1,2,2*%
%TO.N,Net-(L1-Pad2)*%
X129700000Y-104150000D03*
%TD*%
%TO.P,L3,1,1*%
%TO.N,Net-(C3-Pad1)*%
X139800000Y-104150000D03*
%TO.P,L3,2,2*%
%TO.N,Net-(C4-Pad1)*%
X142100000Y-104150000D03*
%TD*%
D11*
%TO.P,C1,1*%
%TO.N,Net-(C1-Pad1)*%
X125450000Y-104150000D03*
%TO.P,C1,2*%
%TO.N,GND*%
X125450000Y-106225000D03*
%TD*%
%TO.P,C5,1*%
%TO.N,Net-(C5-Pad1)*%
X150250000Y-104150000D03*
%TO.P,C5,2*%
%TO.N,GND*%
X150250000Y-106225000D03*
%TD*%
D12*
%TO.P,L4,1,1*%
%TO.N,Net-(C4-Pad1)*%
X146050000Y-104150000D03*
%TO.P,L4,2,2*%
%TO.N,Net-(C5-Pad1)*%
X148350000Y-104150000D03*
%TD*%
%TO.P,L2,1,1*%
%TO.N,Net-(L1-Pad2)*%
X133600000Y-104150000D03*
%TO.P,L2,2,2*%
%TO.N,Net-(C3-Pad1)*%
X135900000Y-104150000D03*
%TD*%
%TO.P,L5,1,1*%
%TO.N,Net-(C5-Pad1)*%
X152150000Y-104150000D03*
%TO.P,L5,2,2*%
%TO.N,Net-(L5-Pad2)*%
X154450000Y-104150000D03*
%TD*%
D11*
%TO.P,C2,1*%
%TO.N,Net-(L1-Pad2)*%
X131650000Y-104150000D03*
%TO.P,C2,2*%
%TO.N,GND*%
X131650000Y-106225000D03*
%TD*%
%TO.P,C3,1*%
%TO.N,Net-(C3-Pad1)*%
X137850000Y-104150000D03*
%TO.P,C3,2*%
%TO.N,GND*%
X137850000Y-106225000D03*
%TD*%
D13*
%TO.N,GND*%
X143450000Y-107650000D03*
X161100000Y-101300000D03*
X131050000Y-107550000D03*
X120600000Y-101450000D03*
X122550000Y-101450000D03*
X149650000Y-107650000D03*
X156950000Y-101300000D03*
X144600000Y-107650000D03*
X118650000Y-101450000D03*
X126100000Y-107550000D03*
X160950000Y-106950000D03*
X150800000Y-107650000D03*
X118650000Y-107000000D03*
X156900000Y-106950000D03*
X159050000Y-101300000D03*
X124800000Y-107550000D03*
X132300000Y-107600000D03*
X122550000Y-107000000D03*
X137250000Y-107600000D03*
X120600000Y-107000000D03*
X138450000Y-107650000D03*
X159050000Y-106950000D03*
%TD*%
D14*
%TO.N,Net-(C1-Pad1)*%
X120600000Y-104200000D02*
X127350000Y-104200000D01*
X127350000Y-104200000D02*
X127400000Y-104150000D01*
%TO.N,Net-(L1-Pad2)*%
X129700000Y-104150000D02*
X133600000Y-104150000D01*
%TO.N,Net-(C3-Pad1)*%
X135900000Y-104150000D02*
X139800000Y-104150000D01*
%TO.N,Net-(C4-Pad1)*%
X142100000Y-104150000D02*
X146050000Y-104150000D01*
%TO.N,Net-(C5-Pad1)*%
X148350000Y-104150000D02*
X152150000Y-104150000D01*
%TO.N,Net-(L5-Pad2)*%
X154450000Y-104150000D02*
X159050000Y-104150000D01*
%TD*%
%TA.AperFunction,Conductor*%
%TO.N,GND*%
G36*
X153391845Y-104562697D02*
G01*
X153423941Y-104626025D01*
X153425383Y-104636012D01*
X153427474Y-104656166D01*
X153483450Y-104823946D01*
X153576522Y-104974348D01*
X153581704Y-104979521D01*
X153604683Y-105002460D01*
X153701697Y-105099305D01*
X153707927Y-105103145D01*
X153707928Y-105103146D01*
X153845090Y-105187694D01*
X153852262Y-105192115D01*
X153866101Y-105196705D01*
X154013611Y-105245632D01*
X154013613Y-105245632D01*
X154020139Y-105247797D01*
X154026975Y-105248497D01*
X154026978Y-105248498D01*
X154070031Y-105252909D01*
X154124600Y-105258500D01*
X154775400Y-105258500D01*
X154778646Y-105258163D01*
X154778650Y-105258163D01*
X154874308Y-105248238D01*
X154874312Y-105248237D01*
X154881166Y-105247526D01*
X154887702Y-105245345D01*
X154887704Y-105245345D01*
X155033495Y-105196705D01*
X155048946Y-105191550D01*
X155199348Y-105098478D01*
X155324305Y-104973303D01*
X155328177Y-104967021D01*
X155391022Y-104865069D01*
X155443795Y-104817575D01*
X155498282Y-104805185D01*
X155875500Y-104805185D01*
X155943621Y-104825187D01*
X155990114Y-104878843D01*
X156001500Y-104931185D01*
X156001500Y-104948134D01*
X156008255Y-105010316D01*
X156059385Y-105146705D01*
X156146739Y-105263261D01*
X156263295Y-105350615D01*
X156399684Y-105401745D01*
X156461866Y-105408500D01*
X161315500Y-105408500D01*
X161383621Y-105428502D01*
X161430114Y-105482158D01*
X161441500Y-105534500D01*
X161441500Y-107016000D01*
X161421498Y-107084121D01*
X161367842Y-107130614D01*
X161315500Y-107142000D01*
X159322115Y-107142000D01*
X159306876Y-107146475D01*
X159305671Y-107147865D01*
X159304000Y-107155548D01*
X159304000Y-108528000D01*
X159283998Y-108596121D01*
X159230342Y-108642614D01*
X159178000Y-108654000D01*
X156020116Y-108654000D01*
X156004877Y-108658475D01*
X156003672Y-108659865D01*
X156002001Y-108667548D01*
X156002001Y-109115500D01*
X155981999Y-109183621D01*
X155928343Y-109230114D01*
X155876001Y-109241500D01*
X123774000Y-109241500D01*
X123705879Y-109221498D01*
X123659386Y-109167842D01*
X123648000Y-109115500D01*
X123648000Y-108722115D01*
X123643525Y-108706876D01*
X123642135Y-108705671D01*
X123634452Y-108704000D01*
X120472000Y-108704000D01*
X120403879Y-108683998D01*
X120357386Y-108630342D01*
X120346000Y-108578000D01*
X120346000Y-108177885D01*
X120854000Y-108177885D01*
X120858475Y-108193124D01*
X120859865Y-108194329D01*
X120867548Y-108196000D01*
X123629884Y-108196000D01*
X123645123Y-108191525D01*
X123646328Y-108190135D01*
X123647999Y-108182452D01*
X123647999Y-108127885D01*
X156002000Y-108127885D01*
X156006475Y-108143124D01*
X156007865Y-108144329D01*
X156015548Y-108146000D01*
X158777885Y-108146000D01*
X158793124Y-108141525D01*
X158794329Y-108140135D01*
X158796000Y-108132452D01*
X158796000Y-107160116D01*
X158791525Y-107144877D01*
X158790135Y-107143672D01*
X158782452Y-107142001D01*
X156465331Y-107142001D01*
X156458510Y-107142371D01*
X156407648Y-107147895D01*
X156392396Y-107151521D01*
X156271946Y-107196676D01*
X156256351Y-107205214D01*
X156154276Y-107281715D01*
X156141715Y-107294276D01*
X156065214Y-107396351D01*
X156056676Y-107411946D01*
X156011522Y-107532394D01*
X156007895Y-107547649D01*
X156002369Y-107598514D01*
X156002000Y-107605328D01*
X156002000Y-108127885D01*
X123647999Y-108127885D01*
X123647999Y-107655331D01*
X123647629Y-107648510D01*
X123642105Y-107597648D01*
X123638479Y-107582396D01*
X123593324Y-107461946D01*
X123584786Y-107446351D01*
X123508285Y-107344276D01*
X123495724Y-107331715D01*
X123393649Y-107255214D01*
X123378054Y-107246676D01*
X123257606Y-107201522D01*
X123242351Y-107197895D01*
X123191486Y-107192369D01*
X123184672Y-107192000D01*
X120872115Y-107192000D01*
X120856876Y-107196475D01*
X120855671Y-107197865D01*
X120854000Y-107205548D01*
X120854000Y-108177885D01*
X120346000Y-108177885D01*
X120346000Y-107210116D01*
X120341525Y-107194877D01*
X120340135Y-107193672D01*
X120332452Y-107192001D01*
X118334500Y-107192001D01*
X118266379Y-107171999D01*
X118219886Y-107118343D01*
X118208500Y-107066001D01*
X118208500Y-106609595D01*
X124217001Y-106609595D01*
X124217338Y-106616114D01*
X124227257Y-106711706D01*
X124230149Y-106725100D01*
X124281588Y-106879284D01*
X124287761Y-106892462D01*
X124373063Y-107030307D01*
X124382099Y-107041708D01*
X124496829Y-107156239D01*
X124508240Y-107165251D01*
X124646243Y-107250316D01*
X124659424Y-107256463D01*
X124813710Y-107307638D01*
X124827086Y-107310505D01*
X124921438Y-107320172D01*
X124927854Y-107320500D01*
X125177885Y-107320500D01*
X125193124Y-107316025D01*
X125194329Y-107314635D01*
X125196000Y-107306952D01*
X125196000Y-107302384D01*
X125704000Y-107302384D01*
X125708475Y-107317623D01*
X125709865Y-107318828D01*
X125717548Y-107320499D01*
X125972095Y-107320499D01*
X125978614Y-107320162D01*
X126074206Y-107310243D01*
X126087600Y-107307351D01*
X126241784Y-107255912D01*
X126254962Y-107249739D01*
X126392807Y-107164437D01*
X126404208Y-107155401D01*
X126518739Y-107040671D01*
X126527751Y-107029260D01*
X126612816Y-106891257D01*
X126618963Y-106878076D01*
X126670138Y-106723790D01*
X126673005Y-106710414D01*
X126682672Y-106616062D01*
X126683000Y-106609646D01*
X126683000Y-106609595D01*
X130417001Y-106609595D01*
X130417338Y-106616114D01*
X130427257Y-106711706D01*
X130430149Y-106725100D01*
X130481588Y-106879284D01*
X130487761Y-106892462D01*
X130573063Y-107030307D01*
X130582099Y-107041708D01*
X130696829Y-107156239D01*
X130708240Y-107165251D01*
X130846243Y-107250316D01*
X130859424Y-107256463D01*
X131013710Y-107307638D01*
X131027086Y-107310505D01*
X131121438Y-107320172D01*
X131127854Y-107320500D01*
X131377885Y-107320500D01*
X131393124Y-107316025D01*
X131394329Y-107314635D01*
X131396000Y-107306952D01*
X131396000Y-107302384D01*
X131904000Y-107302384D01*
X131908475Y-107317623D01*
X131909865Y-107318828D01*
X131917548Y-107320499D01*
X132172095Y-107320499D01*
X132178614Y-107320162D01*
X132274206Y-107310243D01*
X132287600Y-107307351D01*
X132441784Y-107255912D01*
X132454962Y-107249739D01*
X132592807Y-107164437D01*
X132604208Y-107155401D01*
X132718739Y-107040671D01*
X132727751Y-107029260D01*
X132812816Y-106891257D01*
X132818963Y-106878076D01*
X132870138Y-106723790D01*
X132873005Y-106710414D01*
X132882672Y-106616062D01*
X132883000Y-106609646D01*
X132883000Y-106609595D01*
X136617001Y-106609595D01*
X136617338Y-106616114D01*
X136627257Y-106711706D01*
X136630149Y-106725100D01*
X136681588Y-106879284D01*
X136687761Y-106892462D01*
X136773063Y-107030307D01*
X136782099Y-107041708D01*
X136896829Y-107156239D01*
X136908240Y-107165251D01*
X137046243Y-107250316D01*
X137059424Y-107256463D01*
X137213710Y-107307638D01*
X137227086Y-107310505D01*
X137321438Y-107320172D01*
X137327854Y-107320500D01*
X137577885Y-107320500D01*
X137593124Y-107316025D01*
X137594329Y-107314635D01*
X137596000Y-107306952D01*
X137596000Y-107302384D01*
X138104000Y-107302384D01*
X138108475Y-107317623D01*
X138109865Y-107318828D01*
X138117548Y-107320499D01*
X138372095Y-107320499D01*
X138378614Y-107320162D01*
X138474206Y-107310243D01*
X138487600Y-107307351D01*
X138641784Y-107255912D01*
X138654962Y-107249739D01*
X138792807Y-107164437D01*
X138804208Y-107155401D01*
X138918739Y-107040671D01*
X138927751Y-107029260D01*
X139012816Y-106891257D01*
X139018963Y-106878076D01*
X139070138Y-106723790D01*
X139073005Y-106710414D01*
X139082672Y-106616062D01*
X139083000Y-106609646D01*
X139083000Y-106609595D01*
X142817001Y-106609595D01*
X142817338Y-106616114D01*
X142827257Y-106711706D01*
X142830149Y-106725100D01*
X142881588Y-106879284D01*
X142887761Y-106892462D01*
X142973063Y-107030307D01*
X142982099Y-107041708D01*
X143096829Y-107156239D01*
X143108240Y-107165251D01*
X143246243Y-107250316D01*
X143259424Y-107256463D01*
X143413710Y-107307638D01*
X143427086Y-107310505D01*
X143521438Y-107320172D01*
X143527854Y-107320500D01*
X143777885Y-107320500D01*
X143793124Y-107316025D01*
X143794329Y-107314635D01*
X143796000Y-107306952D01*
X143796000Y-107302384D01*
X144304000Y-107302384D01*
X144308475Y-107317623D01*
X144309865Y-107318828D01*
X144317548Y-107320499D01*
X144572095Y-107320499D01*
X144578614Y-107320162D01*
X144674206Y-107310243D01*
X144687600Y-107307351D01*
X144841784Y-107255912D01*
X144854962Y-107249739D01*
X144992807Y-107164437D01*
X145004208Y-107155401D01*
X145118739Y-107040671D01*
X145127751Y-107029260D01*
X145212816Y-106891257D01*
X145218963Y-106878076D01*
X145270138Y-106723790D01*
X145273005Y-106710414D01*
X145282672Y-106616062D01*
X145283000Y-106609646D01*
X145283000Y-106609595D01*
X149017001Y-106609595D01*
X149017338Y-106616114D01*
X149027257Y-106711706D01*
X149030149Y-106725100D01*
X149081588Y-106879284D01*
X149087761Y-106892462D01*
X149173063Y-107030307D01*
X149182099Y-107041708D01*
X149296829Y-107156239D01*
X149308240Y-107165251D01*
X149446243Y-107250316D01*
X149459424Y-107256463D01*
X149613710Y-107307638D01*
X149627086Y-107310505D01*
X149721438Y-107320172D01*
X149727854Y-107320500D01*
X149977885Y-107320500D01*
X149993124Y-107316025D01*
X149994329Y-107314635D01*
X149996000Y-107306952D01*
X149996000Y-107302384D01*
X150504000Y-107302384D01*
X150508475Y-107317623D01*
X150509865Y-107318828D01*
X150517548Y-107320499D01*
X150772095Y-107320499D01*
X150778614Y-107320162D01*
X150874206Y-107310243D01*
X150887600Y-107307351D01*
X151041784Y-107255912D01*
X151054962Y-107249739D01*
X151192807Y-107164437D01*
X151204208Y-107155401D01*
X151318739Y-107040671D01*
X151327751Y-107029260D01*
X151412816Y-106891257D01*
X151418963Y-106878076D01*
X151470138Y-106723790D01*
X151473005Y-106710414D01*
X151482672Y-106616062D01*
X151483000Y-106609646D01*
X151483000Y-106497115D01*
X151478525Y-106481876D01*
X151477135Y-106480671D01*
X151469452Y-106479000D01*
X150522115Y-106479000D01*
X150506876Y-106483475D01*
X150505671Y-106484865D01*
X150504000Y-106492548D01*
X150504000Y-107302384D01*
X149996000Y-107302384D01*
X149996000Y-106497115D01*
X149991525Y-106481876D01*
X149990135Y-106480671D01*
X149982452Y-106479000D01*
X149035116Y-106479000D01*
X149019877Y-106483475D01*
X149018672Y-106484865D01*
X149017001Y-106492548D01*
X149017001Y-106609595D01*
X145283000Y-106609595D01*
X145283000Y-106497115D01*
X145278525Y-106481876D01*
X145277135Y-106480671D01*
X145269452Y-106479000D01*
X144322115Y-106479000D01*
X144306876Y-106483475D01*
X144305671Y-106484865D01*
X144304000Y-106492548D01*
X144304000Y-107302384D01*
X143796000Y-107302384D01*
X143796000Y-106497115D01*
X143791525Y-106481876D01*
X143790135Y-106480671D01*
X143782452Y-106479000D01*
X142835116Y-106479000D01*
X142819877Y-106483475D01*
X142818672Y-106484865D01*
X142817001Y-106492548D01*
X142817001Y-106609595D01*
X139083000Y-106609595D01*
X139083000Y-106497115D01*
X139078525Y-106481876D01*
X139077135Y-106480671D01*
X139069452Y-106479000D01*
X138122115Y-106479000D01*
X138106876Y-106483475D01*
X138105671Y-106484865D01*
X138104000Y-106492548D01*
X138104000Y-107302384D01*
X137596000Y-107302384D01*
X137596000Y-106497115D01*
X137591525Y-106481876D01*
X137590135Y-106480671D01*
X137582452Y-106479000D01*
X136635116Y-106479000D01*
X136619877Y-106483475D01*
X136618672Y-106484865D01*
X136617001Y-106492548D01*
X136617001Y-106609595D01*
X132883000Y-106609595D01*
X132883000Y-106497115D01*
X132878525Y-106481876D01*
X132877135Y-106480671D01*
X132869452Y-106479000D01*
X131922115Y-106479000D01*
X131906876Y-106483475D01*
X131905671Y-106484865D01*
X131904000Y-106492548D01*
X131904000Y-107302384D01*
X131396000Y-107302384D01*
X131396000Y-106497115D01*
X131391525Y-106481876D01*
X131390135Y-106480671D01*
X131382452Y-106479000D01*
X130435116Y-106479000D01*
X130419877Y-106483475D01*
X130418672Y-106484865D01*
X130417001Y-106492548D01*
X130417001Y-106609595D01*
X126683000Y-106609595D01*
X126683000Y-106497115D01*
X126678525Y-106481876D01*
X126677135Y-106480671D01*
X126669452Y-106479000D01*
X125722115Y-106479000D01*
X125706876Y-106483475D01*
X125705671Y-106484865D01*
X125704000Y-106492548D01*
X125704000Y-107302384D01*
X125196000Y-107302384D01*
X125196000Y-106497115D01*
X125191525Y-106481876D01*
X125190135Y-106480671D01*
X125182452Y-106479000D01*
X124235116Y-106479000D01*
X124219877Y-106483475D01*
X124218672Y-106484865D01*
X124217001Y-106492548D01*
X124217001Y-106609595D01*
X118208500Y-106609595D01*
X118208500Y-105584500D01*
X118228502Y-105516379D01*
X118282158Y-105469886D01*
X118334500Y-105458500D01*
X123188134Y-105458500D01*
X123250316Y-105451745D01*
X123386705Y-105400615D01*
X123503261Y-105313261D01*
X123590615Y-105196705D01*
X123641745Y-105060316D01*
X123648500Y-104998134D01*
X123648500Y-104981185D01*
X123668502Y-104913064D01*
X123722158Y-104866571D01*
X123774500Y-104855185D01*
X124240315Y-104855185D01*
X124308436Y-104875187D01*
X124347458Y-104914881D01*
X124376522Y-104961848D01*
X124501697Y-105086805D01*
X124506235Y-105089602D01*
X124546824Y-105146853D01*
X124550054Y-105217776D01*
X124514428Y-105279187D01*
X124505932Y-105286562D01*
X124495793Y-105294598D01*
X124381261Y-105409329D01*
X124372249Y-105420740D01*
X124287184Y-105558743D01*
X124281037Y-105571924D01*
X124229862Y-105726210D01*
X124226995Y-105739586D01*
X124217328Y-105833938D01*
X124217000Y-105840355D01*
X124217000Y-105952885D01*
X124221475Y-105968124D01*
X124222865Y-105969329D01*
X124230548Y-105971000D01*
X126664884Y-105971000D01*
X126680123Y-105966525D01*
X126681328Y-105965135D01*
X126682999Y-105957452D01*
X126682999Y-105840405D01*
X126682662Y-105833886D01*
X126672743Y-105738294D01*
X126669851Y-105724900D01*
X126618412Y-105570716D01*
X126612239Y-105557538D01*
X126526937Y-105419693D01*
X126517901Y-105408292D01*
X126403172Y-105293762D01*
X126394238Y-105286706D01*
X126353177Y-105228788D01*
X126349947Y-105157865D01*
X126385574Y-105096454D01*
X126393407Y-105089654D01*
X126399348Y-105085978D01*
X126404522Y-105080795D01*
X126404526Y-105080792D01*
X126429621Y-105055653D01*
X126491903Y-105021573D01*
X126562723Y-105026576D01*
X126607811Y-105055496D01*
X126620052Y-105067715D01*
X126651697Y-105099305D01*
X126657927Y-105103145D01*
X126657928Y-105103146D01*
X126795090Y-105187694D01*
X126802262Y-105192115D01*
X126816101Y-105196705D01*
X126963611Y-105245632D01*
X126963613Y-105245632D01*
X126970139Y-105247797D01*
X126976975Y-105248497D01*
X126976978Y-105248498D01*
X127020031Y-105252909D01*
X127074600Y-105258500D01*
X127725400Y-105258500D01*
X127728646Y-105258163D01*
X127728650Y-105258163D01*
X127824308Y-105248238D01*
X127824312Y-105248237D01*
X127831166Y-105247526D01*
X127837702Y-105245345D01*
X127837704Y-105245345D01*
X127983495Y-105196705D01*
X127998946Y-105191550D01*
X128149348Y-105098478D01*
X128274305Y-104973303D01*
X128278177Y-104967021D01*
X128363275Y-104828968D01*
X128363276Y-104828966D01*
X128367115Y-104822738D01*
X128422797Y-104654861D01*
X128424712Y-104636171D01*
X128451554Y-104570444D01*
X128509669Y-104529663D01*
X128580607Y-104526775D01*
X128641845Y-104562697D01*
X128673941Y-104626025D01*
X128675383Y-104636012D01*
X128677474Y-104656166D01*
X128733450Y-104823946D01*
X128826522Y-104974348D01*
X128831704Y-104979521D01*
X128854683Y-105002460D01*
X128951697Y-105099305D01*
X128957927Y-105103145D01*
X128957928Y-105103146D01*
X129095090Y-105187694D01*
X129102262Y-105192115D01*
X129116101Y-105196705D01*
X129263611Y-105245632D01*
X129263613Y-105245632D01*
X129270139Y-105247797D01*
X129276975Y-105248497D01*
X129276978Y-105248498D01*
X129320031Y-105252909D01*
X129374600Y-105258500D01*
X130025400Y-105258500D01*
X130028646Y-105258163D01*
X130028650Y-105258163D01*
X130124308Y-105248238D01*
X130124312Y-105248237D01*
X130131166Y-105247526D01*
X130137702Y-105245345D01*
X130137704Y-105245345D01*
X130283495Y-105196705D01*
X130298946Y-105191550D01*
X130449348Y-105098478D01*
X130454521Y-105093296D01*
X130454526Y-105093292D01*
X130492121Y-105055631D01*
X130554403Y-105021551D01*
X130625223Y-105026554D01*
X130670311Y-105055474D01*
X130675162Y-105060316D01*
X130701697Y-105086805D01*
X130706235Y-105089602D01*
X130746824Y-105146853D01*
X130750054Y-105217776D01*
X130714428Y-105279187D01*
X130705932Y-105286562D01*
X130695793Y-105294598D01*
X130581261Y-105409329D01*
X130572249Y-105420740D01*
X130487184Y-105558743D01*
X130481037Y-105571924D01*
X130429862Y-105726210D01*
X130426995Y-105739586D01*
X130417328Y-105833938D01*
X130417000Y-105840355D01*
X130417000Y-105952885D01*
X130421475Y-105968124D01*
X130422865Y-105969329D01*
X130430548Y-105971000D01*
X132864884Y-105971000D01*
X132880123Y-105966525D01*
X132881328Y-105965135D01*
X132882999Y-105957452D01*
X132882999Y-105840405D01*
X132882662Y-105833886D01*
X132872743Y-105738294D01*
X132869851Y-105724900D01*
X132818412Y-105570716D01*
X132812239Y-105557538D01*
X132726937Y-105419693D01*
X132717901Y-105408292D01*
X132603172Y-105293762D01*
X132594238Y-105286706D01*
X132553177Y-105228788D01*
X132549947Y-105157865D01*
X132585574Y-105096454D01*
X132593407Y-105089654D01*
X132599348Y-105085978D01*
X132604522Y-105080795D01*
X132604526Y-105080792D01*
X132629621Y-105055653D01*
X132691903Y-105021573D01*
X132762723Y-105026576D01*
X132807811Y-105055496D01*
X132820052Y-105067715D01*
X132851697Y-105099305D01*
X132857927Y-105103145D01*
X132857928Y-105103146D01*
X132995090Y-105187694D01*
X133002262Y-105192115D01*
X133016101Y-105196705D01*
X133163611Y-105245632D01*
X133163613Y-105245632D01*
X133170139Y-105247797D01*
X133176975Y-105248497D01*
X133176978Y-105248498D01*
X133220031Y-105252909D01*
X133274600Y-105258500D01*
X133925400Y-105258500D01*
X133928646Y-105258163D01*
X133928650Y-105258163D01*
X134024308Y-105248238D01*
X134024312Y-105248237D01*
X134031166Y-105247526D01*
X134037702Y-105245345D01*
X134037704Y-105245345D01*
X134183495Y-105196705D01*
X134198946Y-105191550D01*
X134349348Y-105098478D01*
X134474305Y-104973303D01*
X134478177Y-104967021D01*
X134563275Y-104828968D01*
X134563276Y-104828966D01*
X134567115Y-104822738D01*
X134622797Y-104654861D01*
X134624712Y-104636171D01*
X134651554Y-104570444D01*
X134709669Y-104529663D01*
X134780607Y-104526775D01*
X134841845Y-104562697D01*
X134873941Y-104626025D01*
X134875383Y-104636012D01*
X134877474Y-104656166D01*
X134933450Y-104823946D01*
X135026522Y-104974348D01*
X135031704Y-104979521D01*
X135054683Y-105002460D01*
X135151697Y-105099305D01*
X135157927Y-105103145D01*
X135157928Y-105103146D01*
X135295090Y-105187694D01*
X135302262Y-105192115D01*
X135316101Y-105196705D01*
X135463611Y-105245632D01*
X135463613Y-105245632D01*
X135470139Y-105247797D01*
X135476975Y-105248497D01*
X135476978Y-105248498D01*
X135520031Y-105252909D01*
X135574600Y-105258500D01*
X136225400Y-105258500D01*
X136228646Y-105258163D01*
X136228650Y-105258163D01*
X136324308Y-105248238D01*
X136324312Y-105248237D01*
X136331166Y-105247526D01*
X136337702Y-105245345D01*
X136337704Y-105245345D01*
X136483495Y-105196705D01*
X136498946Y-105191550D01*
X136649348Y-105098478D01*
X136654521Y-105093296D01*
X136654526Y-105093292D01*
X136692121Y-105055631D01*
X136754403Y-105021551D01*
X136825223Y-105026554D01*
X136870311Y-105055474D01*
X136875162Y-105060316D01*
X136901697Y-105086805D01*
X136906235Y-105089602D01*
X136946824Y-105146853D01*
X136950054Y-105217776D01*
X136914428Y-105279187D01*
X136905932Y-105286562D01*
X136895793Y-105294598D01*
X136781261Y-105409329D01*
X136772249Y-105420740D01*
X136687184Y-105558743D01*
X136681037Y-105571924D01*
X136629862Y-105726210D01*
X136626995Y-105739586D01*
X136617328Y-105833938D01*
X136617000Y-105840355D01*
X136617000Y-105952885D01*
X136621475Y-105968124D01*
X136622865Y-105969329D01*
X136630548Y-105971000D01*
X139064884Y-105971000D01*
X139080123Y-105966525D01*
X139081328Y-105965135D01*
X139082999Y-105957452D01*
X139082999Y-105840405D01*
X139082662Y-105833886D01*
X139072743Y-105738294D01*
X139069851Y-105724900D01*
X139018412Y-105570716D01*
X139012239Y-105557538D01*
X138926937Y-105419693D01*
X138917901Y-105408292D01*
X138803172Y-105293762D01*
X138794238Y-105286706D01*
X138753177Y-105228788D01*
X138749947Y-105157865D01*
X138785574Y-105096454D01*
X138793407Y-105089654D01*
X138799348Y-105085978D01*
X138804522Y-105080795D01*
X138804526Y-105080792D01*
X138829621Y-105055653D01*
X138891903Y-105021573D01*
X138962723Y-105026576D01*
X139007811Y-105055496D01*
X139020052Y-105067715D01*
X139051697Y-105099305D01*
X139057927Y-105103145D01*
X139057928Y-105103146D01*
X139195090Y-105187694D01*
X139202262Y-105192115D01*
X139216101Y-105196705D01*
X139363611Y-105245632D01*
X139363613Y-105245632D01*
X139370139Y-105247797D01*
X139376975Y-105248497D01*
X139376978Y-105248498D01*
X139420031Y-105252909D01*
X139474600Y-105258500D01*
X140125400Y-105258500D01*
X140128646Y-105258163D01*
X140128650Y-105258163D01*
X140224308Y-105248238D01*
X140224312Y-105248237D01*
X140231166Y-105247526D01*
X140237702Y-105245345D01*
X140237704Y-105245345D01*
X140383495Y-105196705D01*
X140398946Y-105191550D01*
X140549348Y-105098478D01*
X140674305Y-104973303D01*
X140678177Y-104967021D01*
X140763275Y-104828968D01*
X140763276Y-104828966D01*
X140767115Y-104822738D01*
X140822797Y-104654861D01*
X140824712Y-104636171D01*
X140851554Y-104570444D01*
X140909669Y-104529663D01*
X140980607Y-104526775D01*
X141041845Y-104562697D01*
X141073941Y-104626025D01*
X141075383Y-104636012D01*
X141077474Y-104656166D01*
X141133450Y-104823946D01*
X141226522Y-104974348D01*
X141231704Y-104979521D01*
X141254683Y-105002460D01*
X141351697Y-105099305D01*
X141357927Y-105103145D01*
X141357928Y-105103146D01*
X141495090Y-105187694D01*
X141502262Y-105192115D01*
X141516101Y-105196705D01*
X141663611Y-105245632D01*
X141663613Y-105245632D01*
X141670139Y-105247797D01*
X141676975Y-105248497D01*
X141676978Y-105248498D01*
X141720031Y-105252909D01*
X141774600Y-105258500D01*
X142425400Y-105258500D01*
X142428646Y-105258163D01*
X142428650Y-105258163D01*
X142524308Y-105248238D01*
X142524312Y-105248237D01*
X142531166Y-105247526D01*
X142537702Y-105245345D01*
X142537704Y-105245345D01*
X142683495Y-105196705D01*
X142698946Y-105191550D01*
X142849348Y-105098478D01*
X142854521Y-105093296D01*
X142854526Y-105093292D01*
X142892121Y-105055631D01*
X142954403Y-105021551D01*
X143025223Y-105026554D01*
X143070311Y-105055474D01*
X143075162Y-105060316D01*
X143101697Y-105086805D01*
X143106235Y-105089602D01*
X143146824Y-105146853D01*
X143150054Y-105217776D01*
X143114428Y-105279187D01*
X143105932Y-105286562D01*
X143095793Y-105294598D01*
X142981261Y-105409329D01*
X142972249Y-105420740D01*
X142887184Y-105558743D01*
X142881037Y-105571924D01*
X142829862Y-105726210D01*
X142826995Y-105739586D01*
X142817328Y-105833938D01*
X142817000Y-105840355D01*
X142817000Y-105952885D01*
X142821475Y-105968124D01*
X142822865Y-105969329D01*
X142830548Y-105971000D01*
X145264884Y-105971000D01*
X145280123Y-105966525D01*
X145281328Y-105965135D01*
X145282999Y-105957452D01*
X145282999Y-105840405D01*
X145282662Y-105833886D01*
X145272743Y-105738294D01*
X145269851Y-105724900D01*
X145218412Y-105570716D01*
X145212239Y-105557538D01*
X145126937Y-105419693D01*
X145117901Y-105408292D01*
X145003172Y-105293762D01*
X144994238Y-105286706D01*
X144953177Y-105228788D01*
X144949947Y-105157865D01*
X144985574Y-105096454D01*
X144993407Y-105089654D01*
X144999348Y-105085978D01*
X145033712Y-105051554D01*
X145054578Y-105030652D01*
X145116861Y-104996573D01*
X145187681Y-105001576D01*
X145232769Y-105030497D01*
X145301697Y-105099305D01*
X145307927Y-105103145D01*
X145307928Y-105103146D01*
X145445090Y-105187694D01*
X145452262Y-105192115D01*
X145466101Y-105196705D01*
X145613611Y-105245632D01*
X145613613Y-105245632D01*
X145620139Y-105247797D01*
X145626975Y-105248497D01*
X145626978Y-105248498D01*
X145670031Y-105252909D01*
X145724600Y-105258500D01*
X146375400Y-105258500D01*
X146378646Y-105258163D01*
X146378650Y-105258163D01*
X146474308Y-105248238D01*
X146474312Y-105248237D01*
X146481166Y-105247526D01*
X146487702Y-105245345D01*
X146487704Y-105245345D01*
X146633495Y-105196705D01*
X146648946Y-105191550D01*
X146799348Y-105098478D01*
X146924305Y-104973303D01*
X146928177Y-104967021D01*
X147013275Y-104828968D01*
X147013276Y-104828966D01*
X147017115Y-104822738D01*
X147072797Y-104654861D01*
X147074712Y-104636171D01*
X147101554Y-104570444D01*
X147159669Y-104529663D01*
X147230607Y-104526775D01*
X147291845Y-104562697D01*
X147323941Y-104626025D01*
X147325383Y-104636012D01*
X147327474Y-104656166D01*
X147383450Y-104823946D01*
X147476522Y-104974348D01*
X147481704Y-104979521D01*
X147504683Y-105002460D01*
X147601697Y-105099305D01*
X147607927Y-105103145D01*
X147607928Y-105103146D01*
X147745090Y-105187694D01*
X147752262Y-105192115D01*
X147766101Y-105196705D01*
X147913611Y-105245632D01*
X147913613Y-105245632D01*
X147920139Y-105247797D01*
X147926975Y-105248497D01*
X147926978Y-105248498D01*
X147970031Y-105252909D01*
X148024600Y-105258500D01*
X148675400Y-105258500D01*
X148678646Y-105258163D01*
X148678650Y-105258163D01*
X148774308Y-105248238D01*
X148774312Y-105248237D01*
X148781166Y-105247526D01*
X148787702Y-105245345D01*
X148787704Y-105245345D01*
X148933495Y-105196705D01*
X148948946Y-105191550D01*
X149099348Y-105098478D01*
X149117165Y-105080630D01*
X149179448Y-105046551D01*
X149250268Y-105051554D01*
X149290543Y-105077388D01*
X149290773Y-105077097D01*
X149293728Y-105079431D01*
X149295356Y-105080475D01*
X149301697Y-105086805D01*
X149306235Y-105089602D01*
X149346824Y-105146853D01*
X149350054Y-105217776D01*
X149314428Y-105279187D01*
X149305932Y-105286562D01*
X149295793Y-105294598D01*
X149181261Y-105409329D01*
X149172249Y-105420740D01*
X149087184Y-105558743D01*
X149081037Y-105571924D01*
X149029862Y-105726210D01*
X149026995Y-105739586D01*
X149017328Y-105833938D01*
X149017000Y-105840355D01*
X149017000Y-105952885D01*
X149021475Y-105968124D01*
X149022865Y-105969329D01*
X149030548Y-105971000D01*
X151464884Y-105971000D01*
X151480123Y-105966525D01*
X151481328Y-105965135D01*
X151482999Y-105957452D01*
X151482999Y-105840405D01*
X151482662Y-105833886D01*
X151472743Y-105738294D01*
X151469851Y-105724900D01*
X151418412Y-105570716D01*
X151412239Y-105557538D01*
X151326937Y-105419693D01*
X151317901Y-105408292D01*
X151203172Y-105293762D01*
X151194238Y-105286706D01*
X151153177Y-105228788D01*
X151149947Y-105157865D01*
X151185574Y-105096454D01*
X151193407Y-105089654D01*
X151199348Y-105085978D01*
X151204518Y-105080799D01*
X151204523Y-105080795D01*
X151204667Y-105080650D01*
X151204790Y-105080583D01*
X151210258Y-105076249D01*
X151211000Y-105077185D01*
X151266951Y-105046572D01*
X151337771Y-105051577D01*
X151382856Y-105080496D01*
X151401697Y-105099305D01*
X151407927Y-105103145D01*
X151407928Y-105103146D01*
X151545090Y-105187694D01*
X151552262Y-105192115D01*
X151566101Y-105196705D01*
X151713611Y-105245632D01*
X151713613Y-105245632D01*
X151720139Y-105247797D01*
X151726975Y-105248497D01*
X151726978Y-105248498D01*
X151770031Y-105252909D01*
X151824600Y-105258500D01*
X152475400Y-105258500D01*
X152478646Y-105258163D01*
X152478650Y-105258163D01*
X152574308Y-105248238D01*
X152574312Y-105248237D01*
X152581166Y-105247526D01*
X152587702Y-105245345D01*
X152587704Y-105245345D01*
X152733495Y-105196705D01*
X152748946Y-105191550D01*
X152899348Y-105098478D01*
X153024305Y-104973303D01*
X153028177Y-104967021D01*
X153113275Y-104828968D01*
X153113276Y-104828966D01*
X153117115Y-104822738D01*
X153172797Y-104654861D01*
X153174712Y-104636171D01*
X153201554Y-104570444D01*
X153259669Y-104529663D01*
X153330607Y-104526775D01*
X153391845Y-104562697D01*
G37*
%TD.AperFunction*%
%TA.AperFunction,Conductor*%
G36*
X155944121Y-99078502D02*
G01*
X155990614Y-99132158D01*
X156002000Y-99184500D01*
X156002000Y-99627885D01*
X156006475Y-99643124D01*
X156007865Y-99644329D01*
X156015548Y-99646000D01*
X159178000Y-99646000D01*
X159246121Y-99666002D01*
X159292614Y-99719658D01*
X159304000Y-99772000D01*
X159304000Y-101139884D01*
X159308475Y-101155123D01*
X159309865Y-101156328D01*
X159317548Y-101157999D01*
X161315500Y-101157999D01*
X161383621Y-101178001D01*
X161430114Y-101231657D01*
X161441500Y-101283999D01*
X161441500Y-102765500D01*
X161421498Y-102833621D01*
X161367842Y-102880114D01*
X161315500Y-102891500D01*
X156461866Y-102891500D01*
X156399684Y-102898255D01*
X156263295Y-102949385D01*
X156146739Y-103036739D01*
X156059385Y-103153295D01*
X156008255Y-103289684D01*
X156001500Y-103351866D01*
X156001500Y-103368815D01*
X155981498Y-103436936D01*
X155927842Y-103483429D01*
X155875500Y-103494815D01*
X155498362Y-103494815D01*
X155430241Y-103474813D01*
X155391218Y-103435118D01*
X155327332Y-103331880D01*
X155323478Y-103325652D01*
X155198303Y-103200695D01*
X155135047Y-103161703D01*
X155053968Y-103111725D01*
X155053966Y-103111724D01*
X155047738Y-103107885D01*
X154967761Y-103081358D01*
X154886389Y-103054368D01*
X154886387Y-103054368D01*
X154879861Y-103052203D01*
X154873025Y-103051503D01*
X154873022Y-103051502D01*
X154829969Y-103047091D01*
X154775400Y-103041500D01*
X154124600Y-103041500D01*
X154121354Y-103041837D01*
X154121350Y-103041837D01*
X154025692Y-103051762D01*
X154025688Y-103051763D01*
X154018834Y-103052474D01*
X154012298Y-103054655D01*
X154012296Y-103054655D01*
X153880194Y-103098728D01*
X153851054Y-103108450D01*
X153700652Y-103201522D01*
X153575695Y-103326697D01*
X153571855Y-103332927D01*
X153571854Y-103332928D01*
X153527254Y-103405283D01*
X153482885Y-103477262D01*
X153427203Y-103645139D01*
X153426503Y-103651975D01*
X153426502Y-103651978D01*
X153425288Y-103663829D01*
X153398446Y-103729556D01*
X153340331Y-103770337D01*
X153269393Y-103773225D01*
X153208155Y-103737303D01*
X153176059Y-103673975D01*
X153174617Y-103663987D01*
X153173238Y-103650693D01*
X153173237Y-103650690D01*
X153172526Y-103643834D01*
X153116550Y-103476054D01*
X153023478Y-103325652D01*
X152898303Y-103200695D01*
X152835047Y-103161703D01*
X152753968Y-103111725D01*
X152753966Y-103111724D01*
X152747738Y-103107885D01*
X152667761Y-103081358D01*
X152586389Y-103054368D01*
X152586387Y-103054368D01*
X152579861Y-103052203D01*
X152573025Y-103051503D01*
X152573022Y-103051502D01*
X152529969Y-103047091D01*
X152475400Y-103041500D01*
X151824600Y-103041500D01*
X151821354Y-103041837D01*
X151821350Y-103041837D01*
X151725692Y-103051762D01*
X151725688Y-103051763D01*
X151718834Y-103052474D01*
X151712298Y-103054655D01*
X151712296Y-103054655D01*
X151580194Y-103098728D01*
X151551054Y-103108450D01*
X151400652Y-103201522D01*
X151395479Y-103206704D01*
X151382835Y-103219370D01*
X151320552Y-103253449D01*
X151249732Y-103248446D01*
X151209459Y-103222613D01*
X151209229Y-103222904D01*
X151206276Y-103220572D01*
X151204644Y-103219525D01*
X151203483Y-103218366D01*
X151198303Y-103213195D01*
X151186413Y-103205866D01*
X151053968Y-103124225D01*
X151053966Y-103124224D01*
X151047738Y-103120385D01*
X150887254Y-103067155D01*
X150886389Y-103066868D01*
X150886387Y-103066868D01*
X150879861Y-103064703D01*
X150873025Y-103064003D01*
X150873022Y-103064002D01*
X150829969Y-103059591D01*
X150775400Y-103054000D01*
X149724600Y-103054000D01*
X149721354Y-103054337D01*
X149721350Y-103054337D01*
X149625692Y-103064262D01*
X149625688Y-103064263D01*
X149618834Y-103064974D01*
X149612298Y-103067155D01*
X149612296Y-103067155D01*
X149497120Y-103105581D01*
X149451054Y-103120950D01*
X149300652Y-103214022D01*
X149295479Y-103219204D01*
X149295333Y-103219350D01*
X149295210Y-103219417D01*
X149289742Y-103223751D01*
X149289000Y-103222815D01*
X149233049Y-103253428D01*
X149162229Y-103248423D01*
X149117145Y-103219504D01*
X149103484Y-103205867D01*
X149103483Y-103205866D01*
X149098303Y-103200695D01*
X149035047Y-103161703D01*
X148953968Y-103111725D01*
X148953966Y-103111724D01*
X148947738Y-103107885D01*
X148867761Y-103081358D01*
X148786389Y-103054368D01*
X148786387Y-103054368D01*
X148779861Y-103052203D01*
X148773025Y-103051503D01*
X148773022Y-103051502D01*
X148729969Y-103047091D01*
X148675400Y-103041500D01*
X148024600Y-103041500D01*
X148021354Y-103041837D01*
X148021350Y-103041837D01*
X147925692Y-103051762D01*
X147925688Y-103051763D01*
X147918834Y-103052474D01*
X147912298Y-103054655D01*
X147912296Y-103054655D01*
X147780194Y-103098728D01*
X147751054Y-103108450D01*
X147600652Y-103201522D01*
X147475695Y-103326697D01*
X147471855Y-103332927D01*
X147471854Y-103332928D01*
X147427254Y-103405283D01*
X147382885Y-103477262D01*
X147327203Y-103645139D01*
X147326503Y-103651975D01*
X147326502Y-103651978D01*
X147325288Y-103663829D01*
X147298446Y-103729556D01*
X147240331Y-103770337D01*
X147169393Y-103773225D01*
X147108155Y-103737303D01*
X147076059Y-103673975D01*
X147074617Y-103663987D01*
X147073238Y-103650693D01*
X147073237Y-103650690D01*
X147072526Y-103643834D01*
X147016550Y-103476054D01*
X146923478Y-103325652D01*
X146798303Y-103200695D01*
X146735047Y-103161703D01*
X146653968Y-103111725D01*
X146653966Y-103111724D01*
X146647738Y-103107885D01*
X146567761Y-103081358D01*
X146486389Y-103054368D01*
X146486387Y-103054368D01*
X146479861Y-103052203D01*
X146473025Y-103051503D01*
X146473022Y-103051502D01*
X146429969Y-103047091D01*
X146375400Y-103041500D01*
X145724600Y-103041500D01*
X145721354Y-103041837D01*
X145721350Y-103041837D01*
X145625692Y-103051762D01*
X145625688Y-103051763D01*
X145618834Y-103052474D01*
X145612298Y-103054655D01*
X145612296Y-103054655D01*
X145480194Y-103098728D01*
X145451054Y-103108450D01*
X145300652Y-103201522D01*
X145295479Y-103206704D01*
X145232922Y-103269370D01*
X145170639Y-103303449D01*
X145099819Y-103298446D01*
X145054731Y-103269525D01*
X145029667Y-103244504D01*
X144998303Y-103213195D01*
X144986413Y-103205866D01*
X144853968Y-103124225D01*
X144853966Y-103124224D01*
X144847738Y-103120385D01*
X144687254Y-103067155D01*
X144686389Y-103066868D01*
X144686387Y-103066868D01*
X144679861Y-103064703D01*
X144673025Y-103064003D01*
X144673022Y-103064002D01*
X144629969Y-103059591D01*
X144575400Y-103054000D01*
X143524600Y-103054000D01*
X143521354Y-103054337D01*
X143521350Y-103054337D01*
X143425692Y-103064262D01*
X143425688Y-103064263D01*
X143418834Y-103064974D01*
X143412298Y-103067155D01*
X143412296Y-103067155D01*
X143297120Y-103105581D01*
X143251054Y-103120950D01*
X143100652Y-103214022D01*
X143095479Y-103219204D01*
X143095474Y-103219208D01*
X143070379Y-103244347D01*
X143008097Y-103278427D01*
X142937277Y-103273424D01*
X142892189Y-103244504D01*
X142853484Y-103205867D01*
X142853483Y-103205866D01*
X142848303Y-103200695D01*
X142785047Y-103161703D01*
X142703968Y-103111725D01*
X142703966Y-103111724D01*
X142697738Y-103107885D01*
X142617761Y-103081358D01*
X142536389Y-103054368D01*
X142536387Y-103054368D01*
X142529861Y-103052203D01*
X142523025Y-103051503D01*
X142523022Y-103051502D01*
X142479969Y-103047091D01*
X142425400Y-103041500D01*
X141774600Y-103041500D01*
X141771354Y-103041837D01*
X141771350Y-103041837D01*
X141675692Y-103051762D01*
X141675688Y-103051763D01*
X141668834Y-103052474D01*
X141662298Y-103054655D01*
X141662296Y-103054655D01*
X141530194Y-103098728D01*
X141501054Y-103108450D01*
X141350652Y-103201522D01*
X141225695Y-103326697D01*
X141221855Y-103332927D01*
X141221854Y-103332928D01*
X141177254Y-103405283D01*
X141132885Y-103477262D01*
X141077203Y-103645139D01*
X141076503Y-103651975D01*
X141076502Y-103651978D01*
X141075288Y-103663829D01*
X141048446Y-103729556D01*
X140990331Y-103770337D01*
X140919393Y-103773225D01*
X140858155Y-103737303D01*
X140826059Y-103673975D01*
X140824617Y-103663987D01*
X140823238Y-103650693D01*
X140823237Y-103650690D01*
X140822526Y-103643834D01*
X140766550Y-103476054D01*
X140673478Y-103325652D01*
X140548303Y-103200695D01*
X140485047Y-103161703D01*
X140403968Y-103111725D01*
X140403966Y-103111724D01*
X140397738Y-103107885D01*
X140317761Y-103081358D01*
X140236389Y-103054368D01*
X140236387Y-103054368D01*
X140229861Y-103052203D01*
X140223025Y-103051503D01*
X140223022Y-103051502D01*
X140179969Y-103047091D01*
X140125400Y-103041500D01*
X139474600Y-103041500D01*
X139471354Y-103041837D01*
X139471350Y-103041837D01*
X139375692Y-103051762D01*
X139375688Y-103051763D01*
X139368834Y-103052474D01*
X139362298Y-103054655D01*
X139362296Y-103054655D01*
X139230194Y-103098728D01*
X139201054Y-103108450D01*
X139050652Y-103201522D01*
X139045479Y-103206704D01*
X139045474Y-103206708D01*
X139007879Y-103244369D01*
X138945597Y-103278449D01*
X138874777Y-103273446D01*
X138829689Y-103244526D01*
X138804469Y-103219350D01*
X138798303Y-103213195D01*
X138786413Y-103205866D01*
X138653968Y-103124225D01*
X138653966Y-103124224D01*
X138647738Y-103120385D01*
X138487254Y-103067155D01*
X138486389Y-103066868D01*
X138486387Y-103066868D01*
X138479861Y-103064703D01*
X138473025Y-103064003D01*
X138473022Y-103064002D01*
X138429969Y-103059591D01*
X138375400Y-103054000D01*
X137324600Y-103054000D01*
X137321354Y-103054337D01*
X137321350Y-103054337D01*
X137225692Y-103064262D01*
X137225688Y-103064263D01*
X137218834Y-103064974D01*
X137212298Y-103067155D01*
X137212296Y-103067155D01*
X137097120Y-103105581D01*
X137051054Y-103120950D01*
X136900652Y-103214022D01*
X136895479Y-103219204D01*
X136895474Y-103219208D01*
X136870379Y-103244347D01*
X136808097Y-103278427D01*
X136737277Y-103273424D01*
X136692189Y-103244504D01*
X136653484Y-103205867D01*
X136653483Y-103205866D01*
X136648303Y-103200695D01*
X136585047Y-103161703D01*
X136503968Y-103111725D01*
X136503966Y-103111724D01*
X136497738Y-103107885D01*
X136417761Y-103081358D01*
X136336389Y-103054368D01*
X136336387Y-103054368D01*
X136329861Y-103052203D01*
X136323025Y-103051503D01*
X136323022Y-103051502D01*
X136279969Y-103047091D01*
X136225400Y-103041500D01*
X135574600Y-103041500D01*
X135571354Y-103041837D01*
X135571350Y-103041837D01*
X135475692Y-103051762D01*
X135475688Y-103051763D01*
X135468834Y-103052474D01*
X135462298Y-103054655D01*
X135462296Y-103054655D01*
X135330194Y-103098728D01*
X135301054Y-103108450D01*
X135150652Y-103201522D01*
X135025695Y-103326697D01*
X135021855Y-103332927D01*
X135021854Y-103332928D01*
X134977254Y-103405283D01*
X134932885Y-103477262D01*
X134877203Y-103645139D01*
X134876503Y-103651975D01*
X134876502Y-103651978D01*
X134875288Y-103663829D01*
X134848446Y-103729556D01*
X134790331Y-103770337D01*
X134719393Y-103773225D01*
X134658155Y-103737303D01*
X134626059Y-103673975D01*
X134624617Y-103663987D01*
X134623238Y-103650693D01*
X134623237Y-103650690D01*
X134622526Y-103643834D01*
X134566550Y-103476054D01*
X134473478Y-103325652D01*
X134348303Y-103200695D01*
X134285047Y-103161703D01*
X134203968Y-103111725D01*
X134203966Y-103111724D01*
X134197738Y-103107885D01*
X134117761Y-103081358D01*
X134036389Y-103054368D01*
X134036387Y-103054368D01*
X134029861Y-103052203D01*
X134023025Y-103051503D01*
X134023022Y-103051502D01*
X133979969Y-103047091D01*
X133925400Y-103041500D01*
X133274600Y-103041500D01*
X133271354Y-103041837D01*
X133271350Y-103041837D01*
X133175692Y-103051762D01*
X133175688Y-103051763D01*
X133168834Y-103052474D01*
X133162298Y-103054655D01*
X133162296Y-103054655D01*
X133030194Y-103098728D01*
X133001054Y-103108450D01*
X132850652Y-103201522D01*
X132845479Y-103206704D01*
X132845474Y-103206708D01*
X132807879Y-103244369D01*
X132745597Y-103278449D01*
X132674777Y-103273446D01*
X132629689Y-103244526D01*
X132604469Y-103219350D01*
X132598303Y-103213195D01*
X132586413Y-103205866D01*
X132453968Y-103124225D01*
X132453966Y-103124224D01*
X132447738Y-103120385D01*
X132287254Y-103067155D01*
X132286389Y-103066868D01*
X132286387Y-103066868D01*
X132279861Y-103064703D01*
X132273025Y-103064003D01*
X132273022Y-103064002D01*
X132229969Y-103059591D01*
X132175400Y-103054000D01*
X131124600Y-103054000D01*
X131121354Y-103054337D01*
X131121350Y-103054337D01*
X131025692Y-103064262D01*
X131025688Y-103064263D01*
X131018834Y-103064974D01*
X131012298Y-103067155D01*
X131012296Y-103067155D01*
X130897120Y-103105581D01*
X130851054Y-103120950D01*
X130700652Y-103214022D01*
X130695479Y-103219204D01*
X130695474Y-103219208D01*
X130670379Y-103244347D01*
X130608097Y-103278427D01*
X130537277Y-103273424D01*
X130492189Y-103244504D01*
X130453484Y-103205867D01*
X130453483Y-103205866D01*
X130448303Y-103200695D01*
X130385047Y-103161703D01*
X130303968Y-103111725D01*
X130303966Y-103111724D01*
X130297738Y-103107885D01*
X130217761Y-103081358D01*
X130136389Y-103054368D01*
X130136387Y-103054368D01*
X130129861Y-103052203D01*
X130123025Y-103051503D01*
X130123022Y-103051502D01*
X130079969Y-103047091D01*
X130025400Y-103041500D01*
X129374600Y-103041500D01*
X129371354Y-103041837D01*
X129371350Y-103041837D01*
X129275692Y-103051762D01*
X129275688Y-103051763D01*
X129268834Y-103052474D01*
X129262298Y-103054655D01*
X129262296Y-103054655D01*
X129130194Y-103098728D01*
X129101054Y-103108450D01*
X128950652Y-103201522D01*
X128825695Y-103326697D01*
X128821855Y-103332927D01*
X128821854Y-103332928D01*
X128777254Y-103405283D01*
X128732885Y-103477262D01*
X128677203Y-103645139D01*
X128676503Y-103651975D01*
X128676502Y-103651978D01*
X128675288Y-103663829D01*
X128648446Y-103729556D01*
X128590331Y-103770337D01*
X128519393Y-103773225D01*
X128458155Y-103737303D01*
X128426059Y-103673975D01*
X128424617Y-103663987D01*
X128423238Y-103650693D01*
X128423237Y-103650690D01*
X128422526Y-103643834D01*
X128366550Y-103476054D01*
X128273478Y-103325652D01*
X128148303Y-103200695D01*
X128085047Y-103161703D01*
X128003968Y-103111725D01*
X128003966Y-103111724D01*
X127997738Y-103107885D01*
X127917761Y-103081358D01*
X127836389Y-103054368D01*
X127836387Y-103054368D01*
X127829861Y-103052203D01*
X127823025Y-103051503D01*
X127823022Y-103051502D01*
X127779969Y-103047091D01*
X127725400Y-103041500D01*
X127074600Y-103041500D01*
X127071354Y-103041837D01*
X127071350Y-103041837D01*
X126975692Y-103051762D01*
X126975688Y-103051763D01*
X126968834Y-103052474D01*
X126962298Y-103054655D01*
X126962296Y-103054655D01*
X126830194Y-103098728D01*
X126801054Y-103108450D01*
X126650652Y-103201522D01*
X126645479Y-103206704D01*
X126645474Y-103206708D01*
X126607879Y-103244369D01*
X126545597Y-103278449D01*
X126474777Y-103273446D01*
X126429689Y-103244526D01*
X126404469Y-103219350D01*
X126398303Y-103213195D01*
X126386413Y-103205866D01*
X126253968Y-103124225D01*
X126253966Y-103124224D01*
X126247738Y-103120385D01*
X126087254Y-103067155D01*
X126086389Y-103066868D01*
X126086387Y-103066868D01*
X126079861Y-103064703D01*
X126073025Y-103064003D01*
X126073022Y-103064002D01*
X126029969Y-103059591D01*
X125975400Y-103054000D01*
X124924600Y-103054000D01*
X124921354Y-103054337D01*
X124921350Y-103054337D01*
X124825692Y-103064262D01*
X124825688Y-103064263D01*
X124818834Y-103064974D01*
X124812298Y-103067155D01*
X124812296Y-103067155D01*
X124697120Y-103105581D01*
X124651054Y-103120950D01*
X124500652Y-103214022D01*
X124375695Y-103339197D01*
X124371855Y-103345427D01*
X124371854Y-103345428D01*
X124285863Y-103484931D01*
X124233091Y-103532424D01*
X124178603Y-103544815D01*
X123774500Y-103544815D01*
X123706379Y-103524813D01*
X123659886Y-103471157D01*
X123648500Y-103418815D01*
X123648500Y-103401866D01*
X123641745Y-103339684D01*
X123590615Y-103203295D01*
X123503261Y-103086739D01*
X123386705Y-102999385D01*
X123250316Y-102948255D01*
X123188134Y-102941500D01*
X118334500Y-102941500D01*
X118266379Y-102921498D01*
X118219886Y-102867842D01*
X118208500Y-102815500D01*
X118208500Y-101334000D01*
X118228502Y-101265879D01*
X118282158Y-101219386D01*
X118334500Y-101208000D01*
X120327885Y-101208000D01*
X120343124Y-101203525D01*
X120344329Y-101202135D01*
X120346000Y-101194452D01*
X120346000Y-101189884D01*
X120854000Y-101189884D01*
X120858475Y-101205123D01*
X120859865Y-101206328D01*
X120867548Y-101207999D01*
X123184669Y-101207999D01*
X123191490Y-101207629D01*
X123242352Y-101202105D01*
X123257604Y-101198479D01*
X123378054Y-101153324D01*
X123393649Y-101144786D01*
X123495724Y-101068285D01*
X123508285Y-101055724D01*
X123584786Y-100953649D01*
X123593324Y-100938054D01*
X123638478Y-100817606D01*
X123642105Y-100802351D01*
X123647631Y-100751486D01*
X123648000Y-100744668D01*
X123648000Y-100694669D01*
X156002001Y-100694669D01*
X156002371Y-100701490D01*
X156007895Y-100752352D01*
X156011521Y-100767604D01*
X156056676Y-100888054D01*
X156065214Y-100903649D01*
X156141715Y-101005724D01*
X156154276Y-101018285D01*
X156256351Y-101094786D01*
X156271946Y-101103324D01*
X156392394Y-101148478D01*
X156407649Y-101152105D01*
X156458514Y-101157631D01*
X156465328Y-101158000D01*
X158777885Y-101158000D01*
X158793124Y-101153525D01*
X158794329Y-101152135D01*
X158796000Y-101144452D01*
X158796000Y-100172115D01*
X158791525Y-100156876D01*
X158790135Y-100155671D01*
X158782452Y-100154000D01*
X156020116Y-100154000D01*
X156004877Y-100158475D01*
X156003672Y-100159865D01*
X156002001Y-100167548D01*
X156002001Y-100694669D01*
X123648000Y-100694669D01*
X123648000Y-100222115D01*
X123643525Y-100206876D01*
X123642135Y-100205671D01*
X123634452Y-100204000D01*
X120872115Y-100204000D01*
X120856876Y-100208475D01*
X120855671Y-100209865D01*
X120854000Y-100217548D01*
X120854000Y-101189884D01*
X120346000Y-101189884D01*
X120346000Y-99822000D01*
X120366002Y-99753879D01*
X120419658Y-99707386D01*
X120472000Y-99696000D01*
X123629884Y-99696000D01*
X123645123Y-99691525D01*
X123646328Y-99690135D01*
X123647999Y-99682452D01*
X123647999Y-99184500D01*
X123668001Y-99116379D01*
X123721657Y-99069886D01*
X123773999Y-99058500D01*
X155876000Y-99058500D01*
X155944121Y-99078502D01*
G37*
%TD.AperFunction*%
%TD*%
M02*
