M48
; DRILL file {KiCad (6.0.10)} date Sat May 27 15:47:15 2023
; FORMAT={-:-/ absolute / inch / decimal}
; #@! TF.CreationDate,2023-05-27T15:47:15+03:00
; #@! TF.GenerationSoftware,Kicad,Pcbnew,(6.0.10)
; #@! TF.FileFunction,Plated,1,4,PTH
FMAT,2
INCH
; #@! TA.AperFunction,Plated,PTH,ViaDrill
T1C0.0157
%
G90
G05
T1
X4.5965Y-3.6811
X4.6063Y-3.1988
X4.6063Y-3.3465
X4.6063Y-3.5433
X4.6654Y-3.1988
X4.6654Y-3.3465
X4.6654Y-3.5433
X4.6654Y-3.6811
X4.7244Y-3.1988
X4.7244Y-3.3465
X4.7244Y-3.5433
X4.7244Y-3.6811
X4.8681Y-3.6811
X4.9075Y-3.6811
X5.0551Y-3.6811
X5.0945Y-3.6811
X5.252Y-3.6811
X5.2913Y-3.6811
X5.4232Y-3.6811
X5.4331Y-3.1988
X5.4331Y-3.3465
X5.4331Y-3.5433
X5.4921Y-3.1988
X5.4921Y-3.3465
X5.4921Y-3.5433
X5.4921Y-3.6811
X5.5512Y-3.1988
X5.5512Y-3.3465
X5.5512Y-3.5433
X5.5512Y-3.6811
T0
M30
