%TF.GenerationSoftware,KiCad,Pcbnew,(6.0.10)*%
%TF.CreationDate,2023-05-27T15:47:13+03:00*%
%TF.ProjectId,BSF_5,4253465f-352e-46b6-9963-61645f706362,rev?*%
%TF.SameCoordinates,Original*%
%TF.FileFunction,Copper,L1,Top*%
%TF.FilePolarity,Positive*%
%FSLAX46Y46*%
G04 Gerber Fmt 4.6, Leading zero omitted, Abs format (unit mm)*
G04 Created by KiCad (PCBNEW (6.0.10)) date 2023-05-27 15:47:13*
%MOMM*%
%LPD*%
G01*
G04 APERTURE LIST*
G04 Aperture macros list*
%AMRoundRect*
0 Rectangle with rounded corners*
0 $1 Rounding radius*
0 $2 $3 $4 $5 $6 $7 $8 $9 X,Y pos of 4 corners*
0 Add a 4 corners polygon primitive as box body*
4,1,4,$2,$3,$4,$5,$6,$7,$8,$9,$2,$3,0*
0 Add four circle primitives for the rounded corners*
1,1,$1+$1,$2,$3*
1,1,$1+$1,$4,$5*
1,1,$1+$1,$6,$7*
1,1,$1+$1,$8,$9*
0 Add four rect primitives between the rounded corners*
20,1,$1+$1,$2,$3,$4,$5,0*
20,1,$1+$1,$4,$5,$6,$7,0*
20,1,$1+$1,$6,$7,$8,$9,0*
20,1,$1+$1,$8,$9,$2,$3,0*%
G04 Aperture macros list end*
%TA.AperFunction,SMDPad,CuDef*%
%ADD10RoundRect,0.218750X-0.218750X-0.256250X0.218750X-0.256250X0.218750X0.256250X-0.218750X0.256250X0*%
%TD*%
%TA.AperFunction,SMDPad,CuDef*%
%ADD11RoundRect,0.218750X0.256250X-0.218750X0.256250X0.218750X-0.256250X0.218750X-0.256250X-0.218750X0*%
%TD*%
%TA.AperFunction,SMDPad,CuDef*%
%ADD12RoundRect,0.225000X-0.250000X0.225000X-0.250000X-0.225000X0.250000X-0.225000X0.250000X0.225000X0*%
%TD*%
%TA.AperFunction,SMDPad,CuDef*%
%ADD13RoundRect,0.225000X0.225000X0.250000X-0.225000X0.250000X-0.225000X-0.250000X0.225000X-0.250000X0*%
%TD*%
%TA.AperFunction,SMDPad,CuDef*%
%ADD14R,5.080000X1.500000*%
%TD*%
%TA.AperFunction,ViaPad*%
%ADD15C,0.800000*%
%TD*%
%TA.AperFunction,Conductor*%
%ADD16C,0.250000*%
%TD*%
%TA.AperFunction,Conductor*%
%ADD17C,0.293370*%
%TD*%
G04 APERTURE END LIST*
D10*
%TO.P,L2,1,1*%
%TO.N,Net-(J1-Pad1)*%
X125612500Y-85750000D03*
%TO.P,L2,2,2*%
%TO.N,Net-(L2-Pad2)*%
X127187500Y-85750000D03*
%TD*%
D11*
%TO.P,L3,1,1*%
%TO.N,Net-(L3-Pad1)*%
X128900000Y-89075000D03*
%TO.P,L3,2,2*%
%TO.N,Net-(L2-Pad2)*%
X128900000Y-87500000D03*
%TD*%
D12*
%TO.P,C1,1,1*%
%TO.N,Net-(L1-Pad1)*%
X123900000Y-90725000D03*
%TO.P,C1,2,2*%
%TO.N,GND*%
X123900000Y-92275000D03*
%TD*%
D11*
%TO.P,L5,1,1*%
%TO.N,Net-(L5-Pad1)*%
X133900000Y-89075000D03*
%TO.P,L5,2,2*%
%TO.N,Net-(J2-Pad1)*%
X133900000Y-87500000D03*
%TD*%
D13*
%TO.P,C4,1,1*%
%TO.N,Net-(J2-Pad1)*%
X132100000Y-87500000D03*
%TO.P,C4,2,2*%
%TO.N,Net-(L2-Pad2)*%
X130550000Y-87500000D03*
%TD*%
D14*
%TO.P,J1,1,In*%
%TO.N,Net-(J1-Pad1)*%
X118362500Y-87500000D03*
%TO.P,J1,2,Ext*%
%TO.N,GND*%
X118362500Y-91750000D03*
X118362500Y-83250000D03*
%TD*%
%TO.P,J2,1,In*%
%TO.N,Net-(J2-Pad1)*%
X139500000Y-87500000D03*
%TO.P,J2,2,Ext*%
%TO.N,GND*%
X139500000Y-83250000D03*
X139500000Y-91750000D03*
%TD*%
D12*
%TO.P,C5,1,1*%
%TO.N,Net-(L5-Pad1)*%
X133900000Y-90725000D03*
%TO.P,C5,2,2*%
%TO.N,GND*%
X133900000Y-92275000D03*
%TD*%
%TO.P,C3,1,1*%
%TO.N,Net-(L3-Pad1)*%
X128900000Y-90725000D03*
%TO.P,C3,2,2*%
%TO.N,GND*%
X128900000Y-92275000D03*
%TD*%
D13*
%TO.P,C2,1,1*%
%TO.N,Net-(L2-Pad2)*%
X127175000Y-87500000D03*
%TO.P,C2,2,2*%
%TO.N,Net-(J1-Pad1)*%
X125625000Y-87500000D03*
%TD*%
D11*
%TO.P,L1,1,1*%
%TO.N,Net-(L1-Pad1)*%
X123900000Y-89075000D03*
%TO.P,L1,2,2*%
%TO.N,Net-(J1-Pad1)*%
X123900000Y-87500000D03*
%TD*%
D10*
%TO.P,L4,1,1*%
%TO.N,Net-(L2-Pad2)*%
X130550000Y-85750000D03*
%TO.P,L4,2,2*%
%TO.N,Net-(J2-Pad1)*%
X132125000Y-85750000D03*
%TD*%
D15*
%TO.N,GND*%
X141000000Y-81250000D03*
X138000000Y-81250000D03*
X116750000Y-93500000D03*
X141000000Y-93500000D03*
X133400000Y-93500000D03*
X124650000Y-93500000D03*
X120000000Y-81250000D03*
X118500000Y-93500000D03*
X120000000Y-93500000D03*
X117000000Y-90000000D03*
X117000000Y-81250000D03*
X141000000Y-90000000D03*
X139500000Y-90000000D03*
X129400000Y-93500000D03*
X117000000Y-85000000D03*
X139500000Y-85000000D03*
X138000000Y-85000000D03*
X123650000Y-93500000D03*
X139500000Y-93500000D03*
X118500000Y-90000000D03*
X118500000Y-85000000D03*
X138000000Y-90000000D03*
X141000000Y-85000000D03*
X139500000Y-81250000D03*
X118500000Y-81250000D03*
X128400000Y-93500000D03*
X120000000Y-85000000D03*
X134400000Y-93500000D03*
X137750000Y-93500000D03*
X120000000Y-90000000D03*
%TD*%
D16*
%TO.N,Net-(L5-Pad1)*%
X133900000Y-89075000D02*
X133900000Y-90725000D01*
D17*
%TO.N,Net-(L1-Pad1)*%
X123900000Y-89075000D02*
X123900000Y-90725000D01*
%TO.N,Net-(L2-Pad2)*%
X127187500Y-87487500D02*
X127175000Y-87500000D01*
X127175000Y-87500000D02*
X130550000Y-87500000D01*
X127187500Y-85750000D02*
X127187500Y-87487500D01*
X130550000Y-85750000D02*
X130550000Y-87500000D01*
%TO.N,Net-(J1-Pad1)*%
X125625000Y-85762500D02*
X125612500Y-85750000D01*
X125625000Y-87500000D02*
X125625000Y-85762500D01*
X118362500Y-87500000D02*
X125625000Y-87500000D01*
%TO.N,Net-(L3-Pad1)*%
X128900000Y-89075000D02*
X128900000Y-90725000D01*
%TO.N,Net-(J2-Pad1)*%
X132125000Y-85750000D02*
X132125000Y-87475000D01*
X132125000Y-87475000D02*
X132100000Y-87500000D01*
X132100000Y-87500000D02*
X139500000Y-87500000D01*
%TD*%
%TA.AperFunction,Conductor*%
%TO.N,GND*%
G36*
X123067521Y-88175187D02*
G01*
X123088412Y-88192006D01*
X123090281Y-88193871D01*
X123094800Y-88198382D01*
X123128882Y-88260661D01*
X123123884Y-88331481D01*
X123094960Y-88376578D01*
X123069136Y-88402447D01*
X123065296Y-88408677D01*
X123065295Y-88408678D01*
X123061113Y-88415462D01*
X122980151Y-88546808D01*
X122926762Y-88707769D01*
X122916500Y-88807928D01*
X122916500Y-89342072D01*
X122927022Y-89443482D01*
X122980692Y-89604349D01*
X123069929Y-89748555D01*
X123075107Y-89753724D01*
X123127887Y-89806412D01*
X123161966Y-89868694D01*
X123156963Y-89939515D01*
X123128042Y-89984602D01*
X123075623Y-90037113D01*
X123075619Y-90037118D01*
X123070448Y-90042298D01*
X123066608Y-90048528D01*
X123066607Y-90048529D01*
X122985255Y-90180507D01*
X122980698Y-90187899D01*
X122926851Y-90350243D01*
X122926151Y-90357080D01*
X122926150Y-90357082D01*
X122925236Y-90366001D01*
X122916500Y-90451268D01*
X122916500Y-90998732D01*
X122927113Y-91101019D01*
X122929295Y-91107559D01*
X122978537Y-91255153D01*
X122981244Y-91263268D01*
X123071248Y-91408713D01*
X123076430Y-91413886D01*
X123080977Y-91419623D01*
X123079170Y-91421055D01*
X123107902Y-91473575D01*
X123102892Y-91544395D01*
X123079501Y-91580853D01*
X123080552Y-91581683D01*
X123067002Y-91598840D01*
X122984996Y-91731880D01*
X122978849Y-91745061D01*
X122929509Y-91893814D01*
X122926642Y-91907190D01*
X122917328Y-91998097D01*
X122917071Y-92003126D01*
X122921475Y-92018124D01*
X122922865Y-92019329D01*
X122930548Y-92021000D01*
X124864885Y-92021000D01*
X124880124Y-92016525D01*
X124881329Y-92015135D01*
X124883000Y-92007452D01*
X124883000Y-92004562D01*
X124882663Y-91998047D01*
X124873106Y-91905943D01*
X124870212Y-91892544D01*
X124820619Y-91743893D01*
X124814445Y-91730714D01*
X124732212Y-91597827D01*
X124718629Y-91580689D01*
X124720559Y-91579159D01*
X124692097Y-91527120D01*
X124697113Y-91456301D01*
X124720799Y-91419383D01*
X124719843Y-91418628D01*
X124724381Y-91412882D01*
X124729552Y-91407702D01*
X124733393Y-91401471D01*
X124815462Y-91268331D01*
X124815463Y-91268329D01*
X124819302Y-91262101D01*
X124873149Y-91099757D01*
X124883500Y-90998732D01*
X124883500Y-90451268D01*
X124872887Y-90348981D01*
X124861304Y-90314263D01*
X124821073Y-90193676D01*
X124821072Y-90193674D01*
X124818756Y-90186732D01*
X124728752Y-90041287D01*
X124723570Y-90036114D01*
X124723566Y-90036109D01*
X124672117Y-89984750D01*
X124638037Y-89922468D01*
X124643040Y-89851648D01*
X124671961Y-89806559D01*
X124725693Y-89752733D01*
X124730864Y-89747553D01*
X124819849Y-89603192D01*
X124873238Y-89442231D01*
X124883500Y-89342072D01*
X124883500Y-88807928D01*
X124872978Y-88706518D01*
X124819308Y-88545651D01*
X124815458Y-88539430D01*
X124815456Y-88539425D01*
X124807755Y-88526980D01*
X124788918Y-88458527D01*
X124810080Y-88390758D01*
X124864522Y-88345188D01*
X124934958Y-88336285D01*
X124981015Y-88353418D01*
X125025122Y-88380605D01*
X125076949Y-88412552D01*
X125087899Y-88419302D01*
X125250243Y-88473149D01*
X125257080Y-88473849D01*
X125257082Y-88473850D01*
X125298401Y-88478083D01*
X125351268Y-88483500D01*
X125898732Y-88483500D01*
X125901978Y-88483163D01*
X125901982Y-88483163D01*
X125936083Y-88479625D01*
X126001019Y-88472887D01*
X126154726Y-88421606D01*
X126156324Y-88421073D01*
X126156326Y-88421072D01*
X126163268Y-88418756D01*
X126177353Y-88410040D01*
X126302487Y-88332605D01*
X126302488Y-88332604D01*
X126308713Y-88328752D01*
X126313886Y-88323570D01*
X126319620Y-88319025D01*
X126321142Y-88320945D01*
X126373206Y-88292455D01*
X126444026Y-88297456D01*
X126480552Y-88320882D01*
X126481372Y-88319843D01*
X126487118Y-88324381D01*
X126492298Y-88329552D01*
X126498528Y-88333392D01*
X126498529Y-88333393D01*
X126626949Y-88412552D01*
X126637899Y-88419302D01*
X126800243Y-88473149D01*
X126807080Y-88473849D01*
X126807082Y-88473850D01*
X126848401Y-88478083D01*
X126901268Y-88483500D01*
X127448732Y-88483500D01*
X127451978Y-88483163D01*
X127451982Y-88483163D01*
X127486083Y-88479625D01*
X127551019Y-88472887D01*
X127704726Y-88421606D01*
X127706324Y-88421073D01*
X127706326Y-88421072D01*
X127713268Y-88418756D01*
X127819087Y-88353274D01*
X127887538Y-88334437D01*
X127955307Y-88355599D01*
X128000878Y-88410040D01*
X128009781Y-88480476D01*
X127992648Y-88526534D01*
X127980151Y-88546808D01*
X127926762Y-88707769D01*
X127916500Y-88807928D01*
X127916500Y-89342072D01*
X127927022Y-89443482D01*
X127980692Y-89604349D01*
X128069929Y-89748555D01*
X128075107Y-89753724D01*
X128127887Y-89806412D01*
X128161966Y-89868694D01*
X128156963Y-89939515D01*
X128128042Y-89984602D01*
X128075623Y-90037113D01*
X128075619Y-90037118D01*
X128070448Y-90042298D01*
X128066608Y-90048528D01*
X128066607Y-90048529D01*
X127985255Y-90180507D01*
X127980698Y-90187899D01*
X127926851Y-90350243D01*
X127926151Y-90357080D01*
X127926150Y-90357082D01*
X127925236Y-90366001D01*
X127916500Y-90451268D01*
X127916500Y-90998732D01*
X127927113Y-91101019D01*
X127929295Y-91107559D01*
X127978537Y-91255153D01*
X127981244Y-91263268D01*
X128071248Y-91408713D01*
X128076430Y-91413886D01*
X128080977Y-91419623D01*
X128079170Y-91421055D01*
X128107902Y-91473575D01*
X128102892Y-91544395D01*
X128079501Y-91580853D01*
X128080552Y-91581683D01*
X128067002Y-91598840D01*
X127984996Y-91731880D01*
X127978849Y-91745061D01*
X127929509Y-91893814D01*
X127926642Y-91907190D01*
X127917328Y-91998097D01*
X127917071Y-92003126D01*
X127921475Y-92018124D01*
X127922865Y-92019329D01*
X127930548Y-92021000D01*
X129864885Y-92021000D01*
X129880124Y-92016525D01*
X129881329Y-92015135D01*
X129883000Y-92007452D01*
X129883000Y-92004562D01*
X129882663Y-91998047D01*
X129873106Y-91905943D01*
X129870212Y-91892544D01*
X129820619Y-91743893D01*
X129814445Y-91730714D01*
X129732212Y-91597827D01*
X129718629Y-91580689D01*
X129720559Y-91579159D01*
X129692097Y-91527120D01*
X129697113Y-91456301D01*
X129720799Y-91419383D01*
X129719843Y-91418628D01*
X129724381Y-91412882D01*
X129729552Y-91407702D01*
X129733393Y-91401471D01*
X129815462Y-91268331D01*
X129815463Y-91268329D01*
X129819302Y-91262101D01*
X129873149Y-91099757D01*
X129883500Y-90998732D01*
X129883500Y-90451268D01*
X129872887Y-90348981D01*
X129861304Y-90314263D01*
X129821073Y-90193676D01*
X129821072Y-90193674D01*
X129818756Y-90186732D01*
X129728752Y-90041287D01*
X129723570Y-90036114D01*
X129723566Y-90036109D01*
X129672117Y-89984750D01*
X129638037Y-89922468D01*
X129643040Y-89851648D01*
X129671961Y-89806559D01*
X129725693Y-89752733D01*
X129730864Y-89747553D01*
X129819849Y-89603192D01*
X129873238Y-89442231D01*
X129883500Y-89342072D01*
X129883500Y-88807928D01*
X129872978Y-88706518D01*
X129825980Y-88565649D01*
X129823395Y-88494700D01*
X129859578Y-88433616D01*
X129923042Y-88401791D01*
X129993637Y-88409330D01*
X129999946Y-88412552D01*
X130000032Y-88412367D01*
X130006668Y-88415461D01*
X130012899Y-88419302D01*
X130175243Y-88473149D01*
X130182080Y-88473849D01*
X130182082Y-88473850D01*
X130223401Y-88478083D01*
X130276268Y-88483500D01*
X130823732Y-88483500D01*
X130826978Y-88483163D01*
X130826982Y-88483163D01*
X130861083Y-88479625D01*
X130926019Y-88472887D01*
X131079726Y-88421606D01*
X131081324Y-88421073D01*
X131081326Y-88421072D01*
X131088268Y-88418756D01*
X131102353Y-88410040D01*
X131227487Y-88332605D01*
X131227488Y-88332604D01*
X131233713Y-88328752D01*
X131238886Y-88323570D01*
X131244620Y-88319025D01*
X131246142Y-88320945D01*
X131298206Y-88292455D01*
X131369026Y-88297456D01*
X131405552Y-88320882D01*
X131406372Y-88319843D01*
X131412118Y-88324381D01*
X131417298Y-88329552D01*
X131423528Y-88333392D01*
X131423529Y-88333393D01*
X131551949Y-88412552D01*
X131562899Y-88419302D01*
X131725243Y-88473149D01*
X131732080Y-88473849D01*
X131732082Y-88473850D01*
X131773401Y-88478083D01*
X131826268Y-88483500D01*
X132373732Y-88483500D01*
X132376978Y-88483163D01*
X132376982Y-88483163D01*
X132411083Y-88479625D01*
X132476019Y-88472887D01*
X132629726Y-88421606D01*
X132631324Y-88421073D01*
X132631326Y-88421072D01*
X132638268Y-88418756D01*
X132720750Y-88367715D01*
X132777485Y-88332606D01*
X132783713Y-88328752D01*
X132792607Y-88319843D01*
X132899377Y-88212886D01*
X132904552Y-88207702D01*
X132905838Y-88205616D01*
X132962119Y-88165711D01*
X133033042Y-88162477D01*
X133092099Y-88195687D01*
X133094801Y-88198383D01*
X133128883Y-88260663D01*
X133123883Y-88331483D01*
X133094960Y-88376578D01*
X133069136Y-88402447D01*
X133065296Y-88408677D01*
X133065295Y-88408678D01*
X133061113Y-88415462D01*
X132980151Y-88546808D01*
X132926762Y-88707769D01*
X132916500Y-88807928D01*
X132916500Y-89342072D01*
X132927022Y-89443482D01*
X132980692Y-89604349D01*
X133069929Y-89748555D01*
X133075107Y-89753724D01*
X133127887Y-89806412D01*
X133161966Y-89868694D01*
X133156963Y-89939515D01*
X133128042Y-89984602D01*
X133075623Y-90037113D01*
X133075619Y-90037118D01*
X133070448Y-90042298D01*
X133066608Y-90048528D01*
X133066607Y-90048529D01*
X132985255Y-90180507D01*
X132980698Y-90187899D01*
X132926851Y-90350243D01*
X132926151Y-90357080D01*
X132926150Y-90357082D01*
X132925236Y-90366001D01*
X132916500Y-90451268D01*
X132916500Y-90998732D01*
X132927113Y-91101019D01*
X132929295Y-91107559D01*
X132978537Y-91255153D01*
X132981244Y-91263268D01*
X133071248Y-91408713D01*
X133076430Y-91413886D01*
X133080977Y-91419623D01*
X133079170Y-91421055D01*
X133107902Y-91473575D01*
X133102892Y-91544395D01*
X133079501Y-91580853D01*
X133080552Y-91581683D01*
X133067002Y-91598840D01*
X132984996Y-91731880D01*
X132978849Y-91745061D01*
X132929509Y-91893814D01*
X132926642Y-91907190D01*
X132917328Y-91998097D01*
X132917071Y-92003126D01*
X132921475Y-92018124D01*
X132922865Y-92019329D01*
X132930548Y-92021000D01*
X134864885Y-92021000D01*
X134880124Y-92016525D01*
X134881329Y-92015135D01*
X134883000Y-92007452D01*
X134883000Y-92004562D01*
X134882663Y-91998047D01*
X134873106Y-91905943D01*
X134870212Y-91892544D01*
X134820619Y-91743893D01*
X134814445Y-91730714D01*
X134732212Y-91597827D01*
X134718629Y-91580689D01*
X134720559Y-91579159D01*
X134692097Y-91527120D01*
X134695584Y-91477885D01*
X136452000Y-91477885D01*
X136456475Y-91493124D01*
X136457865Y-91494329D01*
X136465548Y-91496000D01*
X139227885Y-91496000D01*
X139243124Y-91491525D01*
X139244329Y-91490135D01*
X139246000Y-91482452D01*
X139246000Y-90510116D01*
X139241525Y-90494877D01*
X139240135Y-90493672D01*
X139232452Y-90492001D01*
X136915331Y-90492001D01*
X136908510Y-90492371D01*
X136857648Y-90497895D01*
X136842396Y-90501521D01*
X136721946Y-90546676D01*
X136706351Y-90555214D01*
X136604276Y-90631715D01*
X136591715Y-90644276D01*
X136515214Y-90746351D01*
X136506676Y-90761946D01*
X136461522Y-90882394D01*
X136457895Y-90897649D01*
X136452369Y-90948514D01*
X136452000Y-90955328D01*
X136452000Y-91477885D01*
X134695584Y-91477885D01*
X134697113Y-91456301D01*
X134720799Y-91419383D01*
X134719843Y-91418628D01*
X134724381Y-91412882D01*
X134729552Y-91407702D01*
X134733393Y-91401471D01*
X134815462Y-91268331D01*
X134815463Y-91268329D01*
X134819302Y-91262101D01*
X134873149Y-91099757D01*
X134883500Y-90998732D01*
X134883500Y-90451268D01*
X134872887Y-90348981D01*
X134861304Y-90314263D01*
X134821073Y-90193676D01*
X134821072Y-90193674D01*
X134818756Y-90186732D01*
X134728752Y-90041287D01*
X134723570Y-90036114D01*
X134723566Y-90036109D01*
X134672117Y-89984750D01*
X134638037Y-89922468D01*
X134643040Y-89851648D01*
X134671961Y-89806559D01*
X134725693Y-89752733D01*
X134730864Y-89747553D01*
X134819849Y-89603192D01*
X134873238Y-89442231D01*
X134883500Y-89342072D01*
X134883500Y-88807928D01*
X134872978Y-88706518D01*
X134819308Y-88545651D01*
X134730071Y-88401445D01*
X134705195Y-88376613D01*
X134671116Y-88314332D01*
X134676118Y-88243512D01*
X134705039Y-88198423D01*
X134711283Y-88192168D01*
X134773565Y-88158088D01*
X134800457Y-88155185D01*
X136325500Y-88155185D01*
X136393621Y-88175187D01*
X136440114Y-88228843D01*
X136451500Y-88281185D01*
X136451500Y-88298134D01*
X136458255Y-88360316D01*
X136509385Y-88496705D01*
X136596739Y-88613261D01*
X136713295Y-88700615D01*
X136849684Y-88751745D01*
X136911866Y-88758500D01*
X141865500Y-88758500D01*
X141933621Y-88778502D01*
X141980114Y-88832158D01*
X141991500Y-88884500D01*
X141991500Y-90366000D01*
X141971498Y-90434121D01*
X141917842Y-90480614D01*
X141865500Y-90492000D01*
X139772115Y-90492000D01*
X139756876Y-90496475D01*
X139755671Y-90497865D01*
X139754000Y-90505548D01*
X139754000Y-92989884D01*
X139758475Y-93005123D01*
X139759865Y-93006328D01*
X139767548Y-93007999D01*
X141865500Y-93007999D01*
X141933621Y-93028001D01*
X141980114Y-93081657D01*
X141991500Y-93133999D01*
X141991500Y-94115500D01*
X141971498Y-94183621D01*
X141917842Y-94230114D01*
X141865500Y-94241500D01*
X116134500Y-94241500D01*
X116066379Y-94221498D01*
X116019886Y-94167842D01*
X116008500Y-94115500D01*
X116008500Y-93134000D01*
X116028502Y-93065879D01*
X116082158Y-93019386D01*
X116134500Y-93008000D01*
X118090385Y-93008000D01*
X118105624Y-93003525D01*
X118106829Y-93002135D01*
X118108500Y-92994452D01*
X118108500Y-92989884D01*
X118616500Y-92989884D01*
X118620975Y-93005123D01*
X118622365Y-93006328D01*
X118630048Y-93007999D01*
X120947169Y-93007999D01*
X120953990Y-93007629D01*
X121004852Y-93002105D01*
X121020104Y-92998479D01*
X121140554Y-92953324D01*
X121156149Y-92944786D01*
X121258224Y-92868285D01*
X121270785Y-92855724D01*
X121347286Y-92753649D01*
X121355824Y-92738054D01*
X121400978Y-92617606D01*
X121404605Y-92602351D01*
X121410131Y-92551486D01*
X121410459Y-92545438D01*
X122917000Y-92545438D01*
X122917337Y-92551953D01*
X122926894Y-92644057D01*
X122929788Y-92657456D01*
X122979381Y-92806107D01*
X122985555Y-92819286D01*
X123067788Y-92952173D01*
X123076824Y-92963574D01*
X123187429Y-93073986D01*
X123198840Y-93082998D01*
X123331880Y-93165004D01*
X123345061Y-93171151D01*
X123493814Y-93220491D01*
X123507190Y-93223358D01*
X123598097Y-93232672D01*
X123604513Y-93233000D01*
X123627885Y-93233000D01*
X123643124Y-93228525D01*
X123644329Y-93227135D01*
X123646000Y-93219452D01*
X123646000Y-93214885D01*
X124154000Y-93214885D01*
X124158475Y-93230124D01*
X124159865Y-93231329D01*
X124167548Y-93233000D01*
X124195438Y-93233000D01*
X124201953Y-93232663D01*
X124294057Y-93223106D01*
X124307456Y-93220212D01*
X124456107Y-93170619D01*
X124469286Y-93164445D01*
X124602173Y-93082212D01*
X124613574Y-93073176D01*
X124723986Y-92962571D01*
X124732998Y-92951160D01*
X124815004Y-92818120D01*
X124821151Y-92804939D01*
X124870491Y-92656186D01*
X124873358Y-92642810D01*
X124882672Y-92551903D01*
X124882929Y-92546874D01*
X124882507Y-92545438D01*
X127917000Y-92545438D01*
X127917337Y-92551953D01*
X127926894Y-92644057D01*
X127929788Y-92657456D01*
X127979381Y-92806107D01*
X127985555Y-92819286D01*
X128067788Y-92952173D01*
X128076824Y-92963574D01*
X128187429Y-93073986D01*
X128198840Y-93082998D01*
X128331880Y-93165004D01*
X128345061Y-93171151D01*
X128493814Y-93220491D01*
X128507190Y-93223358D01*
X128598097Y-93232672D01*
X128604513Y-93233000D01*
X128627885Y-93233000D01*
X128643124Y-93228525D01*
X128644329Y-93227135D01*
X128646000Y-93219452D01*
X128646000Y-93214885D01*
X129154000Y-93214885D01*
X129158475Y-93230124D01*
X129159865Y-93231329D01*
X129167548Y-93233000D01*
X129195438Y-93233000D01*
X129201953Y-93232663D01*
X129294057Y-93223106D01*
X129307456Y-93220212D01*
X129456107Y-93170619D01*
X129469286Y-93164445D01*
X129602173Y-93082212D01*
X129613574Y-93073176D01*
X129723986Y-92962571D01*
X129732998Y-92951160D01*
X129815004Y-92818120D01*
X129821151Y-92804939D01*
X129870491Y-92656186D01*
X129873358Y-92642810D01*
X129882672Y-92551903D01*
X129882929Y-92546874D01*
X129882507Y-92545438D01*
X132917000Y-92545438D01*
X132917337Y-92551953D01*
X132926894Y-92644057D01*
X132929788Y-92657456D01*
X132979381Y-92806107D01*
X132985555Y-92819286D01*
X133067788Y-92952173D01*
X133076824Y-92963574D01*
X133187429Y-93073986D01*
X133198840Y-93082998D01*
X133331880Y-93165004D01*
X133345061Y-93171151D01*
X133493814Y-93220491D01*
X133507190Y-93223358D01*
X133598097Y-93232672D01*
X133604513Y-93233000D01*
X133627885Y-93233000D01*
X133643124Y-93228525D01*
X133644329Y-93227135D01*
X133646000Y-93219452D01*
X133646000Y-93214885D01*
X134154000Y-93214885D01*
X134158475Y-93230124D01*
X134159865Y-93231329D01*
X134167548Y-93233000D01*
X134195438Y-93233000D01*
X134201953Y-93232663D01*
X134294057Y-93223106D01*
X134307456Y-93220212D01*
X134456107Y-93170619D01*
X134469286Y-93164445D01*
X134602173Y-93082212D01*
X134613574Y-93073176D01*
X134723986Y-92962571D01*
X134732998Y-92951160D01*
X134815004Y-92818120D01*
X134821151Y-92804939D01*
X134870491Y-92656186D01*
X134873358Y-92642810D01*
X134882672Y-92551903D01*
X134882929Y-92546874D01*
X134882282Y-92544669D01*
X136452001Y-92544669D01*
X136452371Y-92551490D01*
X136457895Y-92602352D01*
X136461521Y-92617604D01*
X136506676Y-92738054D01*
X136515214Y-92753649D01*
X136591715Y-92855724D01*
X136604276Y-92868285D01*
X136706351Y-92944786D01*
X136721946Y-92953324D01*
X136842394Y-92998478D01*
X136857649Y-93002105D01*
X136908514Y-93007631D01*
X136915328Y-93008000D01*
X139227885Y-93008000D01*
X139243124Y-93003525D01*
X139244329Y-93002135D01*
X139246000Y-92994452D01*
X139246000Y-92022115D01*
X139241525Y-92006876D01*
X139240135Y-92005671D01*
X139232452Y-92004000D01*
X136470116Y-92004000D01*
X136454877Y-92008475D01*
X136453672Y-92009865D01*
X136452001Y-92017548D01*
X136452001Y-92544669D01*
X134882282Y-92544669D01*
X134878525Y-92531876D01*
X134877135Y-92530671D01*
X134869452Y-92529000D01*
X134172115Y-92529000D01*
X134156876Y-92533475D01*
X134155671Y-92534865D01*
X134154000Y-92542548D01*
X134154000Y-93214885D01*
X133646000Y-93214885D01*
X133646000Y-92547115D01*
X133641525Y-92531876D01*
X133640135Y-92530671D01*
X133632452Y-92529000D01*
X132935115Y-92529000D01*
X132919876Y-92533475D01*
X132918671Y-92534865D01*
X132917000Y-92542548D01*
X132917000Y-92545438D01*
X129882507Y-92545438D01*
X129878525Y-92531876D01*
X129877135Y-92530671D01*
X129869452Y-92529000D01*
X129172115Y-92529000D01*
X129156876Y-92533475D01*
X129155671Y-92534865D01*
X129154000Y-92542548D01*
X129154000Y-93214885D01*
X128646000Y-93214885D01*
X128646000Y-92547115D01*
X128641525Y-92531876D01*
X128640135Y-92530671D01*
X128632452Y-92529000D01*
X127935115Y-92529000D01*
X127919876Y-92533475D01*
X127918671Y-92534865D01*
X127917000Y-92542548D01*
X127917000Y-92545438D01*
X124882507Y-92545438D01*
X124878525Y-92531876D01*
X124877135Y-92530671D01*
X124869452Y-92529000D01*
X124172115Y-92529000D01*
X124156876Y-92533475D01*
X124155671Y-92534865D01*
X124154000Y-92542548D01*
X124154000Y-93214885D01*
X123646000Y-93214885D01*
X123646000Y-92547115D01*
X123641525Y-92531876D01*
X123640135Y-92530671D01*
X123632452Y-92529000D01*
X122935115Y-92529000D01*
X122919876Y-92533475D01*
X122918671Y-92534865D01*
X122917000Y-92542548D01*
X122917000Y-92545438D01*
X121410459Y-92545438D01*
X121410500Y-92544672D01*
X121410500Y-92022115D01*
X121406025Y-92006876D01*
X121404635Y-92005671D01*
X121396952Y-92004000D01*
X118634615Y-92004000D01*
X118619376Y-92008475D01*
X118618171Y-92009865D01*
X118616500Y-92017548D01*
X118616500Y-92989884D01*
X118108500Y-92989884D01*
X118108500Y-91477885D01*
X118616500Y-91477885D01*
X118620975Y-91493124D01*
X118622365Y-91494329D01*
X118630048Y-91496000D01*
X121392384Y-91496000D01*
X121407623Y-91491525D01*
X121408828Y-91490135D01*
X121410499Y-91482452D01*
X121410499Y-90955331D01*
X121410129Y-90948510D01*
X121404605Y-90897648D01*
X121400979Y-90882396D01*
X121355824Y-90761946D01*
X121347286Y-90746351D01*
X121270785Y-90644276D01*
X121258224Y-90631715D01*
X121156149Y-90555214D01*
X121140554Y-90546676D01*
X121020106Y-90501522D01*
X121004851Y-90497895D01*
X120953986Y-90492369D01*
X120947172Y-90492000D01*
X118634615Y-90492000D01*
X118619376Y-90496475D01*
X118618171Y-90497865D01*
X118616500Y-90505548D01*
X118616500Y-91477885D01*
X118108500Y-91477885D01*
X118108500Y-90510116D01*
X118104025Y-90494877D01*
X118102635Y-90493672D01*
X118094952Y-90492001D01*
X116134500Y-90492001D01*
X116066379Y-90471999D01*
X116019886Y-90418343D01*
X116008500Y-90366001D01*
X116008500Y-88884500D01*
X116028502Y-88816379D01*
X116082158Y-88769886D01*
X116134500Y-88758500D01*
X120950634Y-88758500D01*
X121012816Y-88751745D01*
X121149205Y-88700615D01*
X121265761Y-88613261D01*
X121353115Y-88496705D01*
X121404245Y-88360316D01*
X121411000Y-88298134D01*
X121411000Y-88281185D01*
X121431002Y-88213064D01*
X121484658Y-88166571D01*
X121537000Y-88155185D01*
X122999400Y-88155185D01*
X123067521Y-88175187D01*
G37*
%TD.AperFunction*%
%TA.AperFunction,Conductor*%
G36*
X141933621Y-80278502D02*
G01*
X141980114Y-80332158D01*
X141991500Y-80384500D01*
X141991500Y-81866000D01*
X141971498Y-81934121D01*
X141917842Y-81980614D01*
X141865500Y-81992000D01*
X139772115Y-81992000D01*
X139756876Y-81996475D01*
X139755671Y-81997865D01*
X139754000Y-82005548D01*
X139754000Y-84489884D01*
X139758475Y-84505123D01*
X139759865Y-84506328D01*
X139767548Y-84507999D01*
X141865500Y-84507999D01*
X141933621Y-84528001D01*
X141980114Y-84581657D01*
X141991500Y-84633999D01*
X141991500Y-86115500D01*
X141971498Y-86183621D01*
X141917842Y-86230114D01*
X141865500Y-86241500D01*
X136911866Y-86241500D01*
X136849684Y-86248255D01*
X136713295Y-86299385D01*
X136596739Y-86386739D01*
X136509385Y-86503295D01*
X136458255Y-86639684D01*
X136451500Y-86701866D01*
X136451500Y-86718815D01*
X136431498Y-86786936D01*
X136377842Y-86833429D01*
X136325500Y-86844815D01*
X134800600Y-86844815D01*
X134732479Y-86824813D01*
X134711582Y-86807988D01*
X134615233Y-86711807D01*
X134610053Y-86706636D01*
X134465692Y-86617651D01*
X134458743Y-86615346D01*
X134311262Y-86566428D01*
X134311260Y-86566428D01*
X134304731Y-86564262D01*
X134204572Y-86554000D01*
X133595428Y-86554000D01*
X133592182Y-86554337D01*
X133592178Y-86554337D01*
X133558397Y-86557842D01*
X133494018Y-86564522D01*
X133333151Y-86618192D01*
X133188945Y-86707429D01*
X133097039Y-86799496D01*
X133092319Y-86804224D01*
X133030037Y-86838303D01*
X132959217Y-86833300D01*
X132905677Y-86794397D01*
X132903752Y-86791287D01*
X132840426Y-86728071D01*
X132834627Y-86722282D01*
X132800548Y-86659999D01*
X132805551Y-86589179D01*
X132834472Y-86544091D01*
X132913193Y-86465233D01*
X132918364Y-86460053D01*
X133007349Y-86315692D01*
X133060738Y-86154731D01*
X133071000Y-86054572D01*
X133071000Y-85445428D01*
X133060478Y-85344018D01*
X133006808Y-85183151D01*
X132917571Y-85038945D01*
X132797553Y-84919136D01*
X132653192Y-84830151D01*
X132646243Y-84827846D01*
X132498762Y-84778928D01*
X132498760Y-84778928D01*
X132492231Y-84776762D01*
X132392072Y-84766500D01*
X131857928Y-84766500D01*
X131854682Y-84766837D01*
X131854678Y-84766837D01*
X131820897Y-84770342D01*
X131756518Y-84777022D01*
X131595651Y-84830692D01*
X131451445Y-84919929D01*
X131426613Y-84944805D01*
X131364332Y-84978884D01*
X131293512Y-84973882D01*
X131248422Y-84944960D01*
X131227733Y-84924307D01*
X131222553Y-84919136D01*
X131078192Y-84830151D01*
X131071243Y-84827846D01*
X130923762Y-84778928D01*
X130923760Y-84778928D01*
X130917231Y-84776762D01*
X130817072Y-84766500D01*
X130282928Y-84766500D01*
X130279682Y-84766837D01*
X130279678Y-84766837D01*
X130245897Y-84770342D01*
X130181518Y-84777022D01*
X130020651Y-84830692D01*
X129876445Y-84919929D01*
X129756636Y-85039947D01*
X129667651Y-85184308D01*
X129614262Y-85345269D01*
X129604000Y-85445428D01*
X129604000Y-86054572D01*
X129614522Y-86155982D01*
X129668192Y-86316849D01*
X129757429Y-86461055D01*
X129762607Y-86466224D01*
X129827876Y-86531380D01*
X129861955Y-86593663D01*
X129856952Y-86664483D01*
X129828031Y-86709571D01*
X129809717Y-86727917D01*
X129747435Y-86761996D01*
X129676615Y-86756993D01*
X129631525Y-86728071D01*
X129615233Y-86711807D01*
X129610053Y-86706636D01*
X129465692Y-86617651D01*
X129458743Y-86615346D01*
X129311262Y-86566428D01*
X129311260Y-86566428D01*
X129304731Y-86564262D01*
X129204572Y-86554000D01*
X128595428Y-86554000D01*
X128592182Y-86554337D01*
X128592178Y-86554337D01*
X128558397Y-86557842D01*
X128494018Y-86564522D01*
X128333151Y-86618192D01*
X128188945Y-86707429D01*
X128183776Y-86712607D01*
X128183771Y-86712611D01*
X128131119Y-86765354D01*
X128068837Y-86799433D01*
X127998017Y-86794430D01*
X127952929Y-86765509D01*
X127903366Y-86716032D01*
X127869287Y-86653749D01*
X127874290Y-86582929D01*
X127903211Y-86537841D01*
X127975693Y-86465233D01*
X127980864Y-86460053D01*
X128069849Y-86315692D01*
X128123238Y-86154731D01*
X128133500Y-86054572D01*
X128133500Y-85445428D01*
X128122978Y-85344018D01*
X128069308Y-85183151D01*
X127980071Y-85038945D01*
X127860053Y-84919136D01*
X127715692Y-84830151D01*
X127708743Y-84827846D01*
X127561262Y-84778928D01*
X127561260Y-84778928D01*
X127554731Y-84776762D01*
X127454572Y-84766500D01*
X126920428Y-84766500D01*
X126917182Y-84766837D01*
X126917178Y-84766837D01*
X126883397Y-84770342D01*
X126819018Y-84777022D01*
X126658151Y-84830692D01*
X126513945Y-84919929D01*
X126489113Y-84944805D01*
X126426832Y-84978884D01*
X126356012Y-84973882D01*
X126310922Y-84944960D01*
X126290233Y-84924307D01*
X126285053Y-84919136D01*
X126140692Y-84830151D01*
X126133743Y-84827846D01*
X125986262Y-84778928D01*
X125986260Y-84778928D01*
X125979731Y-84776762D01*
X125879572Y-84766500D01*
X125345428Y-84766500D01*
X125342182Y-84766837D01*
X125342178Y-84766837D01*
X125308397Y-84770342D01*
X125244018Y-84777022D01*
X125083151Y-84830692D01*
X124938945Y-84919929D01*
X124819136Y-85039947D01*
X124730151Y-85184308D01*
X124676762Y-85345269D01*
X124666500Y-85445428D01*
X124666500Y-86054572D01*
X124677022Y-86155982D01*
X124730692Y-86316849D01*
X124819929Y-86461055D01*
X124825107Y-86466224D01*
X124896637Y-86537630D01*
X124930716Y-86599913D01*
X124925713Y-86670733D01*
X124896792Y-86715821D01*
X124847282Y-86765417D01*
X124784999Y-86799496D01*
X124714179Y-86794493D01*
X124669091Y-86765571D01*
X124615238Y-86711811D01*
X124615233Y-86711807D01*
X124610053Y-86706636D01*
X124465692Y-86617651D01*
X124458743Y-86615346D01*
X124311262Y-86566428D01*
X124311260Y-86566428D01*
X124304731Y-86564262D01*
X124204572Y-86554000D01*
X123595428Y-86554000D01*
X123592182Y-86554337D01*
X123592178Y-86554337D01*
X123558397Y-86557842D01*
X123494018Y-86564522D01*
X123333151Y-86618192D01*
X123188945Y-86707429D01*
X123109577Y-86786936D01*
X123088716Y-86807833D01*
X123026434Y-86841912D01*
X122999543Y-86844815D01*
X121537000Y-86844815D01*
X121468879Y-86824813D01*
X121422386Y-86771157D01*
X121411000Y-86718815D01*
X121411000Y-86701866D01*
X121404245Y-86639684D01*
X121353115Y-86503295D01*
X121265761Y-86386739D01*
X121149205Y-86299385D01*
X121012816Y-86248255D01*
X120950634Y-86241500D01*
X116134500Y-86241500D01*
X116066379Y-86221498D01*
X116019886Y-86167842D01*
X116008500Y-86115500D01*
X116008500Y-84634000D01*
X116028502Y-84565879D01*
X116082158Y-84519386D01*
X116134500Y-84508000D01*
X118090385Y-84508000D01*
X118105624Y-84503525D01*
X118106829Y-84502135D01*
X118108500Y-84494452D01*
X118108500Y-84489884D01*
X118616500Y-84489884D01*
X118620975Y-84505123D01*
X118622365Y-84506328D01*
X118630048Y-84507999D01*
X120947169Y-84507999D01*
X120953990Y-84507629D01*
X121004852Y-84502105D01*
X121020104Y-84498479D01*
X121140554Y-84453324D01*
X121156149Y-84444786D01*
X121258224Y-84368285D01*
X121270785Y-84355724D01*
X121347286Y-84253649D01*
X121355824Y-84238054D01*
X121400978Y-84117606D01*
X121404605Y-84102351D01*
X121410131Y-84051486D01*
X121410500Y-84044672D01*
X121410500Y-84044669D01*
X136452001Y-84044669D01*
X136452371Y-84051490D01*
X136457895Y-84102352D01*
X136461521Y-84117604D01*
X136506676Y-84238054D01*
X136515214Y-84253649D01*
X136591715Y-84355724D01*
X136604276Y-84368285D01*
X136706351Y-84444786D01*
X136721946Y-84453324D01*
X136842394Y-84498478D01*
X136857649Y-84502105D01*
X136908514Y-84507631D01*
X136915328Y-84508000D01*
X139227885Y-84508000D01*
X139243124Y-84503525D01*
X139244329Y-84502135D01*
X139246000Y-84494452D01*
X139246000Y-83522115D01*
X139241525Y-83506876D01*
X139240135Y-83505671D01*
X139232452Y-83504000D01*
X136470116Y-83504000D01*
X136454877Y-83508475D01*
X136453672Y-83509865D01*
X136452001Y-83517548D01*
X136452001Y-84044669D01*
X121410500Y-84044669D01*
X121410500Y-83522115D01*
X121406025Y-83506876D01*
X121404635Y-83505671D01*
X121396952Y-83504000D01*
X118634615Y-83504000D01*
X118619376Y-83508475D01*
X118618171Y-83509865D01*
X118616500Y-83517548D01*
X118616500Y-84489884D01*
X118108500Y-84489884D01*
X118108500Y-82977885D01*
X118616500Y-82977885D01*
X118620975Y-82993124D01*
X118622365Y-82994329D01*
X118630048Y-82996000D01*
X121392384Y-82996000D01*
X121407623Y-82991525D01*
X121408828Y-82990135D01*
X121410499Y-82982452D01*
X121410499Y-82977885D01*
X136452000Y-82977885D01*
X136456475Y-82993124D01*
X136457865Y-82994329D01*
X136465548Y-82996000D01*
X139227885Y-82996000D01*
X139243124Y-82991525D01*
X139244329Y-82990135D01*
X139246000Y-82982452D01*
X139246000Y-82010116D01*
X139241525Y-81994877D01*
X139240135Y-81993672D01*
X139232452Y-81992001D01*
X136915331Y-81992001D01*
X136908510Y-81992371D01*
X136857648Y-81997895D01*
X136842396Y-82001521D01*
X136721946Y-82046676D01*
X136706351Y-82055214D01*
X136604276Y-82131715D01*
X136591715Y-82144276D01*
X136515214Y-82246351D01*
X136506676Y-82261946D01*
X136461522Y-82382394D01*
X136457895Y-82397649D01*
X136452369Y-82448514D01*
X136452000Y-82455328D01*
X136452000Y-82977885D01*
X121410499Y-82977885D01*
X121410499Y-82455331D01*
X121410129Y-82448510D01*
X121404605Y-82397648D01*
X121400979Y-82382396D01*
X121355824Y-82261946D01*
X121347286Y-82246351D01*
X121270785Y-82144276D01*
X121258224Y-82131715D01*
X121156149Y-82055214D01*
X121140554Y-82046676D01*
X121020106Y-82001522D01*
X121004851Y-81997895D01*
X120953986Y-81992369D01*
X120947172Y-81992000D01*
X118634615Y-81992000D01*
X118619376Y-81996475D01*
X118618171Y-81997865D01*
X118616500Y-82005548D01*
X118616500Y-82977885D01*
X118108500Y-82977885D01*
X118108500Y-82010116D01*
X118104025Y-81994877D01*
X118102635Y-81993672D01*
X118094952Y-81992001D01*
X116134500Y-81992001D01*
X116066379Y-81971999D01*
X116019886Y-81918343D01*
X116008500Y-81866001D01*
X116008500Y-80384500D01*
X116028502Y-80316379D01*
X116082158Y-80269886D01*
X116134500Y-80258500D01*
X141865500Y-80258500D01*
X141933621Y-80278502D01*
G37*
%TD.AperFunction*%
%TD*%
M02*
