%TF.GenerationSoftware,KiCad,Pcbnew,(6.0.10)*%
%TF.CreationDate,2023-05-27T15:47:13+03:00*%
%TF.ProjectId,BSF_5,4253465f-352e-46b6-9963-61645f706362,rev?*%
%TF.SameCoordinates,Original*%
%TF.FileFunction,Copper,L4,Bot*%
%TF.FilePolarity,Positive*%
%FSLAX46Y46*%
G04 Gerber Fmt 4.6, Leading zero omitted, Abs format (unit mm)*
G04 Created by KiCad (PCBNEW (6.0.10)) date 2023-05-27 15:47:13*
%MOMM*%
%LPD*%
G01*
G04 APERTURE LIST*
%TA.AperFunction,SMDPad,CuDef*%
%ADD10R,5.080000X1.500000*%
%TD*%
%TA.AperFunction,ViaPad*%
%ADD11C,0.800000*%
%TD*%
G04 APERTURE END LIST*
D10*
%TO.P,J1,2,Ext*%
%TO.N,GND*%
X118362500Y-91750000D03*
X118362500Y-83250000D03*
%TD*%
%TO.P,J2,2,Ext*%
%TO.N,GND*%
X139500000Y-83250000D03*
X139500000Y-91750000D03*
%TD*%
D11*
%TO.N,GND*%
X141000000Y-81250000D03*
X138000000Y-81250000D03*
X116750000Y-93500000D03*
X141000000Y-93500000D03*
X133400000Y-93500000D03*
X124650000Y-93500000D03*
X120000000Y-81250000D03*
X118500000Y-93500000D03*
X120000000Y-93500000D03*
X117000000Y-90000000D03*
X117000000Y-81250000D03*
X141000000Y-90000000D03*
X139500000Y-90000000D03*
X129400000Y-93500000D03*
X117000000Y-85000000D03*
X139500000Y-85000000D03*
X138000000Y-85000000D03*
X123650000Y-93500000D03*
X139500000Y-93500000D03*
X118500000Y-90000000D03*
X118500000Y-85000000D03*
X138000000Y-90000000D03*
X141000000Y-85000000D03*
X139500000Y-81250000D03*
X118500000Y-81250000D03*
X128400000Y-93500000D03*
X120000000Y-85000000D03*
X134400000Y-93500000D03*
X137750000Y-93500000D03*
X120000000Y-90000000D03*
%TD*%
%TA.AperFunction,Conductor*%
%TO.N,GND*%
G36*
X141933621Y-80278502D02*
G01*
X141980114Y-80332158D01*
X141991500Y-80384500D01*
X141991500Y-81866000D01*
X141971498Y-81934121D01*
X141917842Y-81980614D01*
X141865500Y-81992000D01*
X139772115Y-81992000D01*
X139756876Y-81996475D01*
X139755671Y-81997865D01*
X139754000Y-82005548D01*
X139754000Y-84489884D01*
X139758475Y-84505123D01*
X139759865Y-84506328D01*
X139767548Y-84507999D01*
X141865500Y-84507999D01*
X141933621Y-84528001D01*
X141980114Y-84581657D01*
X141991500Y-84633999D01*
X141991500Y-90366000D01*
X141971498Y-90434121D01*
X141917842Y-90480614D01*
X141865500Y-90492000D01*
X139772115Y-90492000D01*
X139756876Y-90496475D01*
X139755671Y-90497865D01*
X139754000Y-90505548D01*
X139754000Y-92989884D01*
X139758475Y-93005123D01*
X139759865Y-93006328D01*
X139767548Y-93007999D01*
X141865500Y-93007999D01*
X141933621Y-93028001D01*
X141980114Y-93081657D01*
X141991500Y-93133999D01*
X141991500Y-94115500D01*
X141971498Y-94183621D01*
X141917842Y-94230114D01*
X141865500Y-94241500D01*
X116134500Y-94241500D01*
X116066379Y-94221498D01*
X116019886Y-94167842D01*
X116008500Y-94115500D01*
X116008500Y-93134000D01*
X116028502Y-93065879D01*
X116082158Y-93019386D01*
X116134500Y-93008000D01*
X118090385Y-93008000D01*
X118105624Y-93003525D01*
X118106829Y-93002135D01*
X118108500Y-92994452D01*
X118108500Y-92989884D01*
X118616500Y-92989884D01*
X118620975Y-93005123D01*
X118622365Y-93006328D01*
X118630048Y-93007999D01*
X120947169Y-93007999D01*
X120953990Y-93007629D01*
X121004852Y-93002105D01*
X121020104Y-92998479D01*
X121140554Y-92953324D01*
X121156149Y-92944786D01*
X121258224Y-92868285D01*
X121270785Y-92855724D01*
X121347286Y-92753649D01*
X121355824Y-92738054D01*
X121400978Y-92617606D01*
X121404605Y-92602351D01*
X121410131Y-92551486D01*
X121410500Y-92544672D01*
X121410500Y-92544669D01*
X136452001Y-92544669D01*
X136452371Y-92551490D01*
X136457895Y-92602352D01*
X136461521Y-92617604D01*
X136506676Y-92738054D01*
X136515214Y-92753649D01*
X136591715Y-92855724D01*
X136604276Y-92868285D01*
X136706351Y-92944786D01*
X136721946Y-92953324D01*
X136842394Y-92998478D01*
X136857649Y-93002105D01*
X136908514Y-93007631D01*
X136915328Y-93008000D01*
X139227885Y-93008000D01*
X139243124Y-93003525D01*
X139244329Y-93002135D01*
X139246000Y-92994452D01*
X139246000Y-92022115D01*
X139241525Y-92006876D01*
X139240135Y-92005671D01*
X139232452Y-92004000D01*
X136470116Y-92004000D01*
X136454877Y-92008475D01*
X136453672Y-92009865D01*
X136452001Y-92017548D01*
X136452001Y-92544669D01*
X121410500Y-92544669D01*
X121410500Y-92022115D01*
X121406025Y-92006876D01*
X121404635Y-92005671D01*
X121396952Y-92004000D01*
X118634615Y-92004000D01*
X118619376Y-92008475D01*
X118618171Y-92009865D01*
X118616500Y-92017548D01*
X118616500Y-92989884D01*
X118108500Y-92989884D01*
X118108500Y-91477885D01*
X118616500Y-91477885D01*
X118620975Y-91493124D01*
X118622365Y-91494329D01*
X118630048Y-91496000D01*
X121392384Y-91496000D01*
X121407623Y-91491525D01*
X121408828Y-91490135D01*
X121410499Y-91482452D01*
X121410499Y-91477885D01*
X136452000Y-91477885D01*
X136456475Y-91493124D01*
X136457865Y-91494329D01*
X136465548Y-91496000D01*
X139227885Y-91496000D01*
X139243124Y-91491525D01*
X139244329Y-91490135D01*
X139246000Y-91482452D01*
X139246000Y-90510116D01*
X139241525Y-90494877D01*
X139240135Y-90493672D01*
X139232452Y-90492001D01*
X136915331Y-90492001D01*
X136908510Y-90492371D01*
X136857648Y-90497895D01*
X136842396Y-90501521D01*
X136721946Y-90546676D01*
X136706351Y-90555214D01*
X136604276Y-90631715D01*
X136591715Y-90644276D01*
X136515214Y-90746351D01*
X136506676Y-90761946D01*
X136461522Y-90882394D01*
X136457895Y-90897649D01*
X136452369Y-90948514D01*
X136452000Y-90955328D01*
X136452000Y-91477885D01*
X121410499Y-91477885D01*
X121410499Y-90955331D01*
X121410129Y-90948510D01*
X121404605Y-90897648D01*
X121400979Y-90882396D01*
X121355824Y-90761946D01*
X121347286Y-90746351D01*
X121270785Y-90644276D01*
X121258224Y-90631715D01*
X121156149Y-90555214D01*
X121140554Y-90546676D01*
X121020106Y-90501522D01*
X121004851Y-90497895D01*
X120953986Y-90492369D01*
X120947172Y-90492000D01*
X118634615Y-90492000D01*
X118619376Y-90496475D01*
X118618171Y-90497865D01*
X118616500Y-90505548D01*
X118616500Y-91477885D01*
X118108500Y-91477885D01*
X118108500Y-90510116D01*
X118104025Y-90494877D01*
X118102635Y-90493672D01*
X118094952Y-90492001D01*
X116134500Y-90492001D01*
X116066379Y-90471999D01*
X116019886Y-90418343D01*
X116008500Y-90366001D01*
X116008500Y-84634000D01*
X116028502Y-84565879D01*
X116082158Y-84519386D01*
X116134500Y-84508000D01*
X118090385Y-84508000D01*
X118105624Y-84503525D01*
X118106829Y-84502135D01*
X118108500Y-84494452D01*
X118108500Y-84489884D01*
X118616500Y-84489884D01*
X118620975Y-84505123D01*
X118622365Y-84506328D01*
X118630048Y-84507999D01*
X120947169Y-84507999D01*
X120953990Y-84507629D01*
X121004852Y-84502105D01*
X121020104Y-84498479D01*
X121140554Y-84453324D01*
X121156149Y-84444786D01*
X121258224Y-84368285D01*
X121270785Y-84355724D01*
X121347286Y-84253649D01*
X121355824Y-84238054D01*
X121400978Y-84117606D01*
X121404605Y-84102351D01*
X121410131Y-84051486D01*
X121410500Y-84044672D01*
X121410500Y-84044669D01*
X136452001Y-84044669D01*
X136452371Y-84051490D01*
X136457895Y-84102352D01*
X136461521Y-84117604D01*
X136506676Y-84238054D01*
X136515214Y-84253649D01*
X136591715Y-84355724D01*
X136604276Y-84368285D01*
X136706351Y-84444786D01*
X136721946Y-84453324D01*
X136842394Y-84498478D01*
X136857649Y-84502105D01*
X136908514Y-84507631D01*
X136915328Y-84508000D01*
X139227885Y-84508000D01*
X139243124Y-84503525D01*
X139244329Y-84502135D01*
X139246000Y-84494452D01*
X139246000Y-83522115D01*
X139241525Y-83506876D01*
X139240135Y-83505671D01*
X139232452Y-83504000D01*
X136470116Y-83504000D01*
X136454877Y-83508475D01*
X136453672Y-83509865D01*
X136452001Y-83517548D01*
X136452001Y-84044669D01*
X121410500Y-84044669D01*
X121410500Y-83522115D01*
X121406025Y-83506876D01*
X121404635Y-83505671D01*
X121396952Y-83504000D01*
X118634615Y-83504000D01*
X118619376Y-83508475D01*
X118618171Y-83509865D01*
X118616500Y-83517548D01*
X118616500Y-84489884D01*
X118108500Y-84489884D01*
X118108500Y-82977885D01*
X118616500Y-82977885D01*
X118620975Y-82993124D01*
X118622365Y-82994329D01*
X118630048Y-82996000D01*
X121392384Y-82996000D01*
X121407623Y-82991525D01*
X121408828Y-82990135D01*
X121410499Y-82982452D01*
X121410499Y-82977885D01*
X136452000Y-82977885D01*
X136456475Y-82993124D01*
X136457865Y-82994329D01*
X136465548Y-82996000D01*
X139227885Y-82996000D01*
X139243124Y-82991525D01*
X139244329Y-82990135D01*
X139246000Y-82982452D01*
X139246000Y-82010116D01*
X139241525Y-81994877D01*
X139240135Y-81993672D01*
X139232452Y-81992001D01*
X136915331Y-81992001D01*
X136908510Y-81992371D01*
X136857648Y-81997895D01*
X136842396Y-82001521D01*
X136721946Y-82046676D01*
X136706351Y-82055214D01*
X136604276Y-82131715D01*
X136591715Y-82144276D01*
X136515214Y-82246351D01*
X136506676Y-82261946D01*
X136461522Y-82382394D01*
X136457895Y-82397649D01*
X136452369Y-82448514D01*
X136452000Y-82455328D01*
X136452000Y-82977885D01*
X121410499Y-82977885D01*
X121410499Y-82455331D01*
X121410129Y-82448510D01*
X121404605Y-82397648D01*
X121400979Y-82382396D01*
X121355824Y-82261946D01*
X121347286Y-82246351D01*
X121270785Y-82144276D01*
X121258224Y-82131715D01*
X121156149Y-82055214D01*
X121140554Y-82046676D01*
X121020106Y-82001522D01*
X121004851Y-81997895D01*
X120953986Y-81992369D01*
X120947172Y-81992000D01*
X118634615Y-81992000D01*
X118619376Y-81996475D01*
X118618171Y-81997865D01*
X118616500Y-82005548D01*
X118616500Y-82977885D01*
X118108500Y-82977885D01*
X118108500Y-82010116D01*
X118104025Y-81994877D01*
X118102635Y-81993672D01*
X118094952Y-81992001D01*
X116134500Y-81992001D01*
X116066379Y-81971999D01*
X116019886Y-81918343D01*
X116008500Y-81866001D01*
X116008500Y-80384500D01*
X116028502Y-80316379D01*
X116082158Y-80269886D01*
X116134500Y-80258500D01*
X141865500Y-80258500D01*
X141933621Y-80278502D01*
G37*
%TD.AperFunction*%
%TD*%
M02*
