M48
; DRILL file {KiCad (6.0.10)} date Sat May 27 15:44:23 2023
; FORMAT={-:-/ absolute / inch / decimal}
; #@! TF.CreationDate,2023-05-27T15:44:23+03:00
; #@! TF.GenerationSoftware,Kicad,Pcbnew,(6.0.10)
; #@! TF.FileFunction,Plated,1,4,PTH
FMAT,2
INCH
; #@! TA.AperFunction,Plated,PTH,ViaDrill
T1C0.0157
%
G90
G05
T1
X4.9409Y-3.1102
X4.9409Y-3.3071
X5.0098Y-3.1102
X5.0098Y-3.3071
X5.0787Y-3.1102
X5.0787Y-3.3071
X5.187Y-3.3268
X5.2264Y-3.3268
X5.2657Y-3.3268
X5.3051Y-3.3268
X5.561Y-3.3268
X5.6004Y-3.3268
X5.6398Y-3.3268
X5.6791Y-3.3268
X5.9547Y-3.3268
X5.9941Y-3.3268
X6.0335Y-3.3268
X6.0728Y-3.3268
X6.1614Y-3.1102
X6.1614Y-3.3071
X6.2303Y-3.1102
X6.2303Y-3.3071
X6.2992Y-3.1102
X6.2992Y-3.3071
T0
M30
